<svg width="202" height="24" viewBox="0 0 202 24" fill="none" xmlns="http://www.w3.org/2000/svg">
<path d="M2.564 8.92374H0.5V6.23574H2.564V2.63574H5.708V6.23574H8.588V8.92374H5.708V13.4837C5.708 13.7557 5.732 14.0117 5.78 14.2517C5.844 14.4757 5.956 14.6677 6.116 14.8277C6.34 15.0837 6.66 15.2117 7.076 15.2117C7.348 15.2117 7.564 15.1877 7.724 15.1397C7.884 15.0757 8.036 14.9957 8.18 14.8997L9.068 17.6597C8.7 17.8357 8.3 17.9637 7.868 18.0437C7.452 18.1397 6.988 18.1877 6.476 18.1877C5.884 18.1877 5.348 18.0997 4.868 17.9237C4.404 17.7317 4.012 17.4757 3.692 17.1557C2.94 16.4357 2.564 15.4117 2.564 14.0837V8.92374Z" fill="#D9F2FE"/>
<path d="M10.7679 0.811523H13.9119V5.63552L13.7199 7.77152H13.9119C14.2479 7.21152 14.7279 6.75552 15.3519 6.40352C15.9919 6.03552 16.7039 5.85152 17.4879 5.85152C19.0079 5.85152 20.1279 6.29952 20.8479 7.19552C21.5839 8.09152 21.9519 9.31552 21.9519 10.8675V17.9955H18.8079V11.2515C18.8079 10.4355 18.6159 9.81952 18.2319 9.40352C17.8479 8.97152 17.3119 8.75552 16.6239 8.75552C16.1919 8.75552 15.8079 8.85152 15.4719 9.04352C15.1359 9.21952 14.8479 9.46752 14.6079 9.78752C14.3839 10.1075 14.2079 10.4835 14.0799 10.9155C13.9679 11.3315 13.9119 11.7795 13.9119 12.2595V17.9955H10.7679V0.811523Z" fill="#D9F2FE"/>
<path d="M35.4039 15.1636C34.8599 16.1236 34.1239 16.8996 33.1959 17.4916C32.2839 18.0836 31.1639 18.3796 29.8359 18.3796C28.9399 18.3796 28.1079 18.2276 27.3399 17.9236C26.5879 17.6036 25.9319 17.1636 25.3719 16.6036C24.8119 16.0436 24.3719 15.3876 24.0519 14.6356C23.7479 13.8676 23.5959 13.0276 23.5959 12.1156C23.5959 11.2676 23.7479 10.4676 24.0519 9.71556C24.3559 8.94756 24.7799 8.28356 25.3239 7.72356C25.8679 7.14756 26.5079 6.69156 27.2439 6.35556C27.9959 6.01956 28.8199 5.85156 29.7159 5.85156C30.6599 5.85156 31.4999 6.01156 32.2359 6.33156C32.9719 6.63556 33.5879 7.06756 34.0839 7.62756C34.5799 8.17156 34.9559 8.81956 35.2119 9.57156C35.4679 10.3236 35.5959 11.1396 35.5959 12.0196C35.5959 12.1316 35.5959 12.2276 35.5959 12.3076C35.5799 12.4036 35.5719 12.4916 35.5719 12.5716C35.5559 12.6516 35.5479 12.7396 35.5479 12.8356H26.6919C26.7559 13.3156 26.8839 13.7316 27.0759 14.0836C27.2839 14.4196 27.5319 14.7076 27.8199 14.9476C28.1239 15.1716 28.4519 15.3396 28.8039 15.4516C29.1559 15.5476 29.5159 15.5956 29.8839 15.5956C30.6039 15.5956 31.1959 15.4356 31.6599 15.1156C32.1399 14.7796 32.5159 14.3636 32.7879 13.8676L35.4039 15.1636ZM32.5479 10.6036C32.5319 10.3956 32.4599 10.1636 32.3319 9.90756C32.2199 9.65156 32.0439 9.41156 31.8039 9.18756C31.5799 8.96356 31.2919 8.77956 30.9399 8.63556C30.6039 8.49156 30.1959 8.41956 29.7159 8.41956C29.0439 8.41956 28.4519 8.61156 27.9399 8.99556C27.4279 9.37956 27.0679 9.91556 26.8599 10.6036H32.5479Z" fill="#D9F2FE"/>
<path d="M165.768 17.9955V0.811523H168.912V17.9955H165.768Z" fill="#D9F2FE"/>
<path d="M178.516 16.7476H178.324C177.956 17.1956 177.508 17.5796 176.98 17.8996C176.468 18.2196 175.804 18.3796 174.988 18.3796C174.38 18.3796 173.804 18.2756 173.26 18.0676C172.732 17.8756 172.268 17.6036 171.868 17.2516C171.468 16.8996 171.156 16.4756 170.932 15.9796C170.708 15.4836 170.596 14.9396 170.596 14.3476C170.596 13.7396 170.716 13.1956 170.956 12.7156C171.196 12.2196 171.532 11.7956 171.964 11.4436C172.396 11.0916 172.9 10.8276 173.476 10.6516C174.068 10.4596 174.708 10.3636 175.396 10.3636C176.164 10.3636 176.796 10.4276 177.292 10.5556C177.788 10.6676 178.196 10.7876 178.516 10.9156V10.5556C178.516 9.93156 178.268 9.41956 177.772 9.01956C177.276 8.60356 176.66 8.39556 175.924 8.39556C174.836 8.39556 173.916 8.85156 173.164 9.76356L170.884 8.20356C172.132 6.63556 173.836 5.85156 175.996 5.85156C177.82 5.85156 179.212 6.28356 180.172 7.14756C181.132 7.99556 181.612 9.25956 181.612 10.9396V17.9956H178.516V16.7476ZM178.516 13.2196C178.148 13.0436 177.764 12.9076 177.364 12.8116C176.98 12.6996 176.556 12.6436 176.092 12.6436C175.34 12.6436 174.756 12.8116 174.34 13.1476C173.94 13.4676 173.74 13.8676 173.74 14.3476C173.74 14.8276 173.932 15.2116 174.316 15.4996C174.716 15.7876 175.172 15.9316 175.684 15.9316C176.1 15.9316 176.484 15.8596 176.836 15.7156C177.188 15.5556 177.484 15.3556 177.724 15.1156C177.98 14.8596 178.172 14.5716 178.3 14.2516C178.444 13.9156 178.516 13.5716 178.516 13.2196Z" fill="#D9F2FE"/>
<path d="M45.0159 16.7476H44.8239C44.4559 17.1956 44.0079 17.5796 43.4799 17.8996C42.9679 18.2196 42.3039 18.3796 41.4879 18.3796C40.8799 18.3796 40.3039 18.2756 39.7599 18.0676C39.2319 17.8756 38.7679 17.6036 38.3679 17.2516C37.9679 16.8996 37.6559 16.4756 37.4319 15.9796C37.2079 15.4836 37.0959 14.9396 37.0959 14.3476C37.0959 13.7396 37.2159 13.1956 37.4559 12.7156C37.6959 12.2196 38.0319 11.7956 38.4639 11.4436C38.8959 11.0916 39.3999 10.8276 39.9759 10.6516C40.5679 10.4596 41.2079 10.3636 41.8959 10.3636C42.6639 10.3636 43.2959 10.4276 43.7919 10.5556C44.2879 10.6676 44.6959 10.7876 45.0159 10.9156V10.5556C45.0159 9.93156 44.7679 9.41956 44.2719 9.01956C43.7759 8.60356 43.1599 8.39556 42.4239 8.39556C41.3359 8.39556 40.4159 8.85156 39.6639 9.76356L37.3839 8.20356C38.6319 6.63556 40.3359 5.85156 42.4959 5.85156C44.3199 5.85156 45.7119 6.28356 46.6719 7.14756C47.6319 7.99556 48.1119 9.25956 48.1119 10.9396V17.9956H45.0159V16.7476ZM45.0159 13.2196C44.6479 13.0436 44.2639 12.9076 43.8639 12.8116C43.4799 12.6996 43.0559 12.6436 42.5919 12.6436C41.8399 12.6436 41.2559 12.8116 40.8399 13.1476C40.4399 13.4676 40.2399 13.8676 40.2399 14.3476C40.2399 14.8276 40.4319 15.2116 40.8159 15.4996C41.2159 15.7876 41.6719 15.9316 42.1839 15.9316C42.5999 15.9316 42.9839 15.8596 43.3359 15.7156C43.6879 15.5556 43.9839 15.3556 44.2239 15.1156C44.4799 14.8596 44.6719 14.5716 44.7999 14.2516C44.9439 13.9156 45.0159 13.5716 45.0159 13.2196Z" fill="#EF8880"/>
<path d="M54.924 18.3796C54.156 18.3796 53.468 18.2836 52.86 18.0916C52.268 17.8996 51.748 17.6516 51.3 17.3476C50.868 17.0276 50.5 16.6676 50.196 16.2676C49.892 15.8516 49.66 15.4356 49.5 15.0196L52.308 13.8196C52.58 14.4276 52.94 14.8836 53.388 15.1876C53.852 15.4756 54.364 15.6196 54.924 15.6196C55.5 15.6196 55.956 15.5156 56.292 15.3076C56.628 15.0996 56.796 14.8516 56.796 14.5636C56.796 14.2436 56.652 13.9876 56.364 13.7956C56.092 13.5876 55.612 13.4036 54.924 13.2436L53.268 12.8836C52.9 12.8036 52.516 12.6756 52.116 12.4996C51.732 12.3236 51.38 12.0996 51.06 11.8276C50.74 11.5556 50.476 11.2276 50.268 10.8436C50.06 10.4596 49.956 10.0116 49.956 9.49956C49.956 8.92356 50.076 8.41156 50.316 7.96356C50.572 7.51556 50.916 7.13956 51.348 6.83556C51.78 6.51556 52.284 6.27556 52.86 6.11556C53.452 5.93956 54.084 5.85156 54.756 5.85156C55.876 5.85156 56.876 6.07556 57.756 6.52356C58.636 6.95556 59.284 7.65156 59.7 8.61156L56.988 9.71556C56.764 9.25156 56.436 8.91556 56.004 8.70756C55.572 8.49956 55.14 8.39556 54.708 8.39556C54.26 8.39556 53.868 8.49156 53.532 8.68356C53.196 8.85956 53.028 9.09156 53.028 9.37956C53.028 9.65156 53.164 9.86756 53.436 10.0276C53.724 10.1876 54.108 10.3316 54.588 10.4596L56.388 10.8916C57.588 11.1796 58.476 11.6436 59.052 12.2836C59.644 12.9076 59.94 13.6516 59.94 14.5156C59.94 15.0276 59.82 15.5156 59.58 15.9796C59.34 16.4436 58.996 16.8596 58.548 17.2276C58.116 17.5796 57.588 17.8596 56.964 18.0676C56.356 18.2756 55.676 18.3796 54.924 18.3796Z" fill="#EF8880"/>
<path d="M66.424 18.3796C65.656 18.3796 64.968 18.2836 64.36 18.0916C63.768 17.8996 63.248 17.6516 62.8 17.3476C62.368 17.0276 62 16.6676 61.696 16.2676C61.392 15.8516 61.16 15.4356 61 15.0196L63.808 13.8196C64.08 14.4276 64.44 14.8836 64.888 15.1876C65.352 15.4756 65.864 15.6196 66.424 15.6196C67 15.6196 67.456 15.5156 67.792 15.3076C68.128 15.0996 68.296 14.8516 68.296 14.5636C68.296 14.2436 68.152 13.9876 67.864 13.7956C67.592 13.5876 67.112 13.4036 66.424 13.2436L64.768 12.8836C64.4 12.8036 64.016 12.6756 63.616 12.4996C63.232 12.3236 62.88 12.0996 62.56 11.8276C62.24 11.5556 61.976 11.2276 61.768 10.8436C61.56 10.4596 61.456 10.0116 61.456 9.49956C61.456 8.92356 61.576 8.41156 61.816 7.96356C62.072 7.51556 62.416 7.13956 62.848 6.83556C63.28 6.51556 63.784 6.27556 64.36 6.11556C64.952 5.93956 65.584 5.85156 66.256 5.85156C67.376 5.85156 68.376 6.07556 69.256 6.52356C70.136 6.95556 70.784 7.65156 71.2 8.61156L68.488 9.71556C68.264 9.25156 67.936 8.91556 67.504 8.70756C67.072 8.49956 66.64 8.39556 66.208 8.39556C65.76 8.39556 65.368 8.49156 65.032 8.68356C64.696 8.85956 64.528 9.09156 64.528 9.37956C64.528 9.65156 64.664 9.86756 64.936 10.0276C65.224 10.1876 65.608 10.3316 66.088 10.4596L67.888 10.8916C69.088 11.1796 69.976 11.6436 70.552 12.2836C71.144 12.9076 71.44 13.6516 71.44 14.5156C71.44 15.0276 71.32 15.5156 71.08 15.9796C70.84 16.4436 70.496 16.8596 70.048 17.2276C69.616 17.5796 69.088 17.8596 68.464 18.0676C67.856 18.2756 67.176 18.3796 66.424 18.3796Z" fill="#EF8880"/>
<path d="M75.02 4.532C74.748 4.532 74.484 4.484 74.228 4.388C73.988 4.276 73.772 4.132 73.58 3.956C73.404 3.764 73.26 3.548 73.148 3.308C73.052 3.068 73.004 2.804 73.004 2.516C73.004 2.228 73.052 1.964 73.148 1.724C73.26 1.484 73.404 1.276 73.58 1.1C73.772 0.908 73.988 0.764 74.228 0.667999C74.484 0.556 74.748 0.5 75.02 0.5C75.58 0.5 76.06 0.7 76.46 1.1C76.86 1.484 77.06 1.956 77.06 2.516C77.06 3.076 76.86 3.556 76.46 3.956C76.06 4.34 75.58 4.532 75.02 4.532ZM73.46 17.996V6.236H76.604V17.996H73.46Z" fill="#EF8880"/>
<path d="M85.1919 23.5636C84.3599 23.5636 83.6159 23.4516 82.9599 23.2276C82.3199 23.0196 81.7599 22.7396 81.2799 22.3876C80.7999 22.0516 80.3999 21.6756 80.0799 21.2596C79.7599 20.8436 79.5279 20.4276 79.3839 20.0116L82.3839 18.8116C82.6079 19.4356 82.9759 19.9156 83.4879 20.2516C83.9999 20.6036 84.5679 20.7796 85.1919 20.7796C86.1839 20.7796 86.9679 20.4676 87.5439 19.8436C88.1199 19.2356 88.4079 18.3796 88.4079 17.2756V16.4596H88.2159C87.8479 16.9716 87.3599 17.3796 86.7519 17.6836C86.1599 17.9716 85.4559 18.1156 84.6399 18.1156C83.9359 18.1156 83.2479 17.9716 82.5759 17.6836C81.9199 17.3956 81.3359 16.9876 80.8239 16.4596C80.3119 15.9156 79.8959 15.2676 79.5759 14.5156C79.2559 13.7636 79.0959 12.9236 79.0959 11.9956C79.0959 11.0676 79.2559 10.2276 79.5759 9.47556C79.8959 8.70756 80.3119 8.05956 80.8239 7.53156C81.3359 6.98756 81.9199 6.57156 82.5759 6.28356C83.2479 5.99556 83.9359 5.85156 84.6399 5.85156C85.4559 5.85156 86.1599 6.00356 86.7519 6.30756C87.3599 6.59556 87.8479 6.99556 88.2159 7.50756H88.4079V6.23556H91.4079V17.1556C91.4079 18.1476 91.2559 19.0356 90.9519 19.8196C90.6479 20.6196 90.2239 21.2916 89.6799 21.8356C89.1359 22.3956 88.4799 22.8196 87.7119 23.1076C86.9599 23.4116 86.1199 23.5636 85.1919 23.5636ZM85.3119 15.2836C85.6959 15.2836 86.0719 15.2116 86.4399 15.0676C86.8239 14.9236 87.1599 14.7156 87.4479 14.4436C87.7359 14.1556 87.9679 13.8116 88.1439 13.4116C88.3199 12.9956 88.4079 12.5236 88.4079 11.9956C88.4079 11.4676 88.3199 10.9956 88.1439 10.5796C87.9679 10.1636 87.7359 9.81956 87.4479 9.54756C87.1599 9.25956 86.8239 9.04356 86.4399 8.89956C86.0719 8.75556 85.6959 8.68356 85.3119 8.68356C84.9279 8.68356 84.5519 8.75556 84.1839 8.89956C83.8159 9.04356 83.4879 9.25956 83.1999 9.54756C82.9119 9.83556 82.6799 10.1876 82.5039 10.6036C82.3279 11.0036 82.2399 11.4676 82.2399 11.9956C82.2399 12.5236 82.3279 12.9956 82.5039 13.4116C82.6799 13.8116 82.9119 14.1556 83.1999 14.4436C83.4879 14.7156 83.8159 14.9236 84.1839 15.0676C84.5519 15.2116 84.9279 15.2836 85.3119 15.2836Z" fill="#EF8880"/>
<path d="M97.2199 7.77156H97.4119C97.7799 7.17956 98.2759 6.71556 98.8999 6.37956C99.5239 6.02756 100.236 5.85156 101.036 5.85156C101.772 5.85156 102.42 5.97156 102.98 6.21156C103.54 6.45156 103.996 6.79556 104.348 7.24356C104.716 7.67556 104.988 8.20356 105.164 8.82756C105.356 9.43556 105.452 10.1156 105.452 10.8676V17.9956H102.308V11.2516C102.308 10.4036 102.116 9.77956 101.732 9.37956C101.364 8.96356 100.82 8.75556 100.1 8.75556C99.6679 8.75556 99.2839 8.85156 98.9479 9.04356C98.6279 9.21956 98.3479 9.46756 98.1079 9.78756C97.8839 10.0916 97.7079 10.4596 97.5799 10.8916C97.4679 11.3076 97.4119 11.7556 97.4119 12.2356V17.9956H94.2679V6.23556H97.2199V7.77156Z" fill="#EF8880"/>
<path d="M107.768 6.23556H110.72V7.77156H110.912C111.28 7.19556 111.776 6.73156 112.4 6.37956C113.04 6.02756 113.744 5.85156 114.512 5.85156C115.408 5.85156 116.16 6.05956 116.768 6.47556C117.376 6.89156 117.808 7.40356 118.064 8.01156C118.432 7.41956 118.952 6.91556 119.624 6.49956C120.296 6.06756 121.112 5.85156 122.072 5.85156C122.792 5.85156 123.416 5.97156 123.944 6.21156C124.472 6.43556 124.904 6.75556 125.24 7.17156C125.592 7.58756 125.856 8.09156 126.032 8.68356C126.208 9.25956 126.296 9.89156 126.296 10.5796V17.9956H123.152V11.1556C123.152 9.55556 122.496 8.75556 121.184 8.75556C120.768 8.75556 120.4 8.85156 120.08 9.04356C119.76 9.21956 119.488 9.46756 119.264 9.78756C119.056 10.0916 118.888 10.4596 118.76 10.8916C118.648 11.3236 118.592 11.7876 118.592 12.2836V17.9956H115.448V11.1556C115.448 9.55556 114.76 8.75556 113.384 8.75556C112.984 8.75556 112.632 8.85156 112.328 9.04356C112.024 9.21956 111.768 9.46756 111.56 9.78756C111.352 10.0916 111.192 10.4596 111.08 10.8916C110.968 11.3236 110.912 11.7876 110.912 12.2836V17.9956H107.768V6.23556Z" fill="#EF8880"/>
<path d="M140.404 15.1636C139.86 16.1236 139.124 16.8996 138.196 17.4916C137.284 18.0836 136.164 18.3796 134.836 18.3796C133.94 18.3796 133.108 18.2276 132.34 17.9236C131.588 17.6036 130.932 17.1636 130.372 16.6036C129.812 16.0436 129.372 15.3876 129.052 14.6356C128.748 13.8676 128.596 13.0276 128.596 12.1156C128.596 11.2676 128.748 10.4676 129.052 9.71556C129.356 8.94756 129.78 8.28356 130.324 7.72356C130.868 7.14756 131.508 6.69156 132.244 6.35556C132.996 6.01956 133.82 5.85156 134.716 5.85156C135.66 5.85156 136.5 6.01156 137.236 6.33156C137.972 6.63556 138.588 7.06756 139.084 7.62756C139.58 8.17156 139.956 8.81956 140.212 9.57156C140.468 10.3236 140.596 11.1396 140.596 12.0196C140.596 12.1316 140.596 12.2276 140.596 12.3076C140.58 12.4036 140.572 12.4916 140.572 12.5716C140.556 12.6516 140.548 12.7396 140.548 12.8356H131.692C131.756 13.3156 131.884 13.7316 132.076 14.0836C132.284 14.4196 132.532 14.7076 132.82 14.9476C133.124 15.1716 133.452 15.3396 133.804 15.4516C134.156 15.5476 134.516 15.5956 134.884 15.5956C135.604 15.5956 136.196 15.4356 136.66 15.1156C137.14 14.7796 137.516 14.3636 137.788 13.8676L140.404 15.1636ZM137.548 10.6036C137.532 10.3956 137.46 10.1636 137.332 9.90756C137.22 9.65156 137.044 9.41156 136.804 9.18756C136.58 8.96356 136.292 8.77956 135.94 8.63556C135.604 8.49156 135.196 8.41956 134.716 8.41956C134.044 8.41956 133.452 8.61156 132.94 8.99556C132.428 9.37956 132.068 9.91556 131.86 10.6036H137.548Z" fill="#EF8880"/>
<path d="M145.72 7.77156H145.912C146.28 7.17956 146.776 6.71556 147.4 6.37956C148.024 6.02756 148.736 5.85156 149.536 5.85156C150.272 5.85156 150.92 5.97156 151.48 6.21156C152.04 6.45156 152.496 6.79556 152.848 7.24356C153.216 7.67556 153.488 8.20356 153.664 8.82756C153.856 9.43556 153.952 10.1156 153.952 10.8676V17.9956H150.808V11.2516C150.808 10.4036 150.616 9.77956 150.232 9.37956C149.864 8.96356 149.32 8.75556 148.6 8.75556C148.168 8.75556 147.784 8.85156 147.448 9.04356C147.128 9.21956 146.848 9.46756 146.608 9.78756C146.384 10.0916 146.208 10.4596 146.08 10.8916C145.968 11.3076 145.912 11.7556 145.912 12.2356V17.9956H142.768V6.23556H145.72V7.77156Z" fill="#EF8880"/>
<path d="M157.564 8.92374H155.5V6.23574H157.564V2.63574H160.708V6.23574H163.588V8.92374H160.708V13.4837C160.708 13.7557 160.732 14.0117 160.78 14.2517C160.844 14.4757 160.956 14.6677 161.116 14.8277C161.34 15.0837 161.66 15.2117 162.076 15.2117C162.348 15.2117 162.564 15.1877 162.724 15.1397C162.884 15.0757 163.036 14.9957 163.18 14.8997L164.068 17.6597C163.7 17.8357 163.3 17.9637 162.868 18.0437C162.452 18.1397 161.988 18.1877 161.476 18.1877C160.884 18.1877 160.348 18.0997 159.868 17.9237C159.404 17.7317 159.012 17.4757 158.692 17.1557C157.94 16.4357 157.564 15.4117 157.564 14.0837V8.92374Z" fill="#EF8880"/>
<path d="M183.768 0.811523H186.912V5.97152L186.72 7.65152H186.912C187.2 7.15552 187.648 6.73152 188.256 6.37952C188.864 6.02752 189.616 5.85152 190.512 5.85152C191.264 5.85152 191.976 6.01152 192.648 6.33152C193.336 6.63552 193.936 7.06752 194.448 7.62752C194.976 8.17152 195.392 8.82752 195.696 9.59552C196 10.3635 196.152 11.2035 196.152 12.1155C196.152 13.0275 196 13.8675 195.696 14.6355C195.392 15.4035 194.976 16.0675 194.448 16.6275C193.936 17.1715 193.336 17.6035 192.648 17.9235C191.976 18.2275 191.264 18.3795 190.512 18.3795C189.616 18.3795 188.864 18.2035 188.256 17.8515C187.648 17.4995 187.2 17.0755 186.912 16.5795H186.72V17.9955H183.768V0.811523ZM189.864 15.4755C190.28 15.4755 190.672 15.3955 191.04 15.2355C191.424 15.0755 191.76 14.8515 192.048 14.5635C192.336 14.2755 192.568 13.9235 192.744 13.5075C192.92 13.0915 193.008 12.6275 193.008 12.1155C193.008 11.6035 192.92 11.1395 192.744 10.7235C192.568 10.3075 192.336 9.95552 192.048 9.66752C191.76 9.37952 191.424 9.15552 191.04 8.99552C190.672 8.83552 190.28 8.75552 189.864 8.75552C189.448 8.75552 189.048 8.83552 188.664 8.99552C188.296 9.13952 187.968 9.35552 187.68 9.64352C187.392 9.93152 187.16 10.2835 186.984 10.6995C186.808 11.1155 186.72 11.5875 186.72 12.1155C186.72 12.6435 186.808 13.1155 186.984 13.5315C187.16 13.9475 187.392 14.2995 187.68 14.5875C187.968 14.8755 188.296 15.0995 188.664 15.2595C189.048 15.4035 189.448 15.4755 189.864 15.4755Z" fill="#D9F2FE"/>
<path d="M199.438 18.1403C198.862 18.1403 198.366 17.9403 197.95 17.5403C197.55 17.1243 197.35 16.6283 197.35 16.0523C197.35 15.4763 197.55 14.9883 197.95 14.5883C198.366 14.1883 198.862 13.9883 199.438 13.9883C200.014 13.9883 200.502 14.1883 200.902 14.5883C201.302 14.9883 201.502 15.4763 201.502 16.0523C201.502 16.6283 201.302 17.1243 200.902 17.5403C200.502 17.9403 200.014 18.1403 199.438 18.1403Z" fill="#EF8880"/>
</svg>
