<svg width="202" height="24" viewBox="0 0 202 24" fill="none" xmlns="http://www.w3.org/2000/svg">
<path d="M2.564 8.924H0.5V6.236H2.564V2.636H5.708V6.236H8.588V8.924H5.708V13.484C5.708 13.756 5.732 14.012 5.78 14.252C5.844 14.476 5.956 14.668 6.116 14.828C6.34 15.084 6.66 15.212 7.076 15.212C7.348 15.212 7.564 15.188 7.724 15.14C7.884 15.076 8.036 14.996 8.18 14.9L9.068 17.66C8.7 17.836 8.3 17.964 7.868 18.044C7.452 18.14 6.988 18.188 6.476 18.188C5.884 18.188 5.348 18.1 4.868 17.924C4.404 17.732 4.012 17.476 3.692 17.156C2.94 16.436 2.564 15.412 2.564 14.084V8.924Z" fill="#020202"/>
<path d="M10.7679 0.812004H13.9119V5.636L13.7199 7.772H13.9119C14.2479 7.212 14.7279 6.756 15.3519 6.404C15.9919 6.036 16.7039 5.852 17.4879 5.852C19.0079 5.852 20.1279 6.3 20.8479 7.196C21.5839 8.092 21.9519 9.316 21.9519 10.868V17.996H18.8079V11.252C18.8079 10.436 18.6159 9.82001 18.2319 9.40401C17.8479 8.972 17.3119 8.756 16.6239 8.756C16.1919 8.756 15.8079 8.85201 15.4719 9.044C15.1359 9.22001 14.8479 9.468 14.6079 9.788C14.3839 10.108 14.2079 10.484 14.0799 10.916C13.9679 11.332 13.9119 11.78 13.9119 12.26V17.996H10.7679V0.812004Z" fill="#020202"/>
<path d="M35.4039 15.164C34.8599 16.124 34.1239 16.9 33.1959 17.492C32.2839 18.084 31.1639 18.38 29.8359 18.38C28.9399 18.38 28.1079 18.228 27.3399 17.924C26.5879 17.604 25.9319 17.164 25.3719 16.604C24.8119 16.044 24.3719 15.388 24.0519 14.636C23.7479 13.868 23.5959 13.028 23.5959 12.116C23.5959 11.268 23.7479 10.468 24.0519 9.716C24.3559 8.948 24.7799 8.284 25.3239 7.724C25.8679 7.148 26.5079 6.692 27.2439 6.356C27.9959 6.02 28.8199 5.852 29.7159 5.852C30.6599 5.852 31.4999 6.012 32.2359 6.332C32.9719 6.636 33.5879 7.068 34.0839 7.628C34.5799 8.172 34.9559 8.82 35.2119 9.572C35.4679 10.324 35.5959 11.14 35.5959 12.02C35.5959 12.132 35.5959 12.228 35.5959 12.308C35.5799 12.404 35.5719 12.492 35.5719 12.572C35.5559 12.652 35.5479 12.74 35.5479 12.836H26.6919C26.7559 13.316 26.8839 13.732 27.0759 14.084C27.2839 14.42 27.5319 14.708 27.8199 14.948C28.1239 15.172 28.4519 15.34 28.8039 15.452C29.1559 15.548 29.5159 15.596 29.8839 15.596C30.6039 15.596 31.1959 15.436 31.6599 15.116C32.1399 14.78 32.5159 14.364 32.7879 13.868L35.4039 15.164ZM32.5479 10.604C32.5319 10.396 32.4599 10.164 32.3319 9.908C32.2199 9.652 32.0439 9.412 31.8039 9.188C31.5799 8.964 31.2919 8.78 30.9399 8.636C30.6039 8.492 30.1959 8.42 29.7159 8.42C29.0439 8.42 28.4519 8.612 27.9399 8.996C27.4279 9.38 27.0679 9.916 26.8599 10.604H32.5479Z" fill="#020202"/>
<path d="M165.768 17.996V0.812004H168.912V17.996H165.768Z" fill="#020202"/>
<path d="M178.516 16.748H178.324C177.956 17.196 177.508 17.58 176.98 17.9C176.468 18.22 175.804 18.38 174.988 18.38C174.38 18.38 173.804 18.276 173.26 18.068C172.732 17.876 172.268 17.604 171.868 17.252C171.468 16.9 171.156 16.476 170.932 15.98C170.708 15.484 170.596 14.94 170.596 14.348C170.596 13.74 170.716 13.196 170.956 12.716C171.196 12.22 171.532 11.796 171.964 11.444C172.396 11.092 172.9 10.828 173.476 10.652C174.068 10.46 174.708 10.364 175.396 10.364C176.164 10.364 176.796 10.428 177.292 10.556C177.788 10.668 178.196 10.788 178.516 10.916V10.556C178.516 9.932 178.268 9.42 177.772 9.02C177.276 8.604 176.66 8.396 175.924 8.396C174.836 8.396 173.916 8.852 173.164 9.764L170.884 8.204C172.132 6.636 173.836 5.852 175.996 5.852C177.82 5.852 179.212 6.284 180.172 7.148C181.132 7.996 181.612 9.26 181.612 10.94V17.996H178.516V16.748ZM178.516 13.22C178.148 13.044 177.764 12.908 177.364 12.812C176.98 12.7 176.556 12.644 176.092 12.644C175.34 12.644 174.756 12.812 174.34 13.148C173.94 13.468 173.74 13.868 173.74 14.348C173.74 14.828 173.932 15.212 174.316 15.5C174.716 15.788 175.172 15.932 175.684 15.932C176.1 15.932 176.484 15.86 176.836 15.716C177.188 15.556 177.484 15.356 177.724 15.116C177.98 14.86 178.172 14.572 178.3 14.252C178.444 13.916 178.516 13.572 178.516 13.22Z" fill="#020202"/>
<path d="M45.0159 16.748H44.8239C44.4559 17.196 44.0079 17.58 43.4799 17.9C42.9679 18.22 42.3039 18.38 41.4879 18.38C40.8799 18.38 40.3039 18.276 39.7599 18.068C39.2319 17.876 38.7679 17.604 38.3679 17.252C37.9679 16.9 37.6559 16.476 37.4319 15.98C37.2079 15.484 37.0959 14.94 37.0959 14.348C37.0959 13.74 37.2159 13.196 37.4559 12.716C37.6959 12.22 38.0319 11.796 38.4639 11.444C38.8959 11.092 39.3999 10.828 39.9759 10.652C40.5679 10.46 41.2079 10.364 41.8959 10.364C42.6639 10.364 43.2959 10.428 43.7919 10.556C44.2879 10.668 44.6959 10.788 45.0159 10.916V10.556C45.0159 9.932 44.7679 9.42 44.2719 9.02C43.7759 8.604 43.1599 8.396 42.4239 8.396C41.3359 8.396 40.4159 8.852 39.6639 9.764L37.3839 8.204C38.6319 6.636 40.3359 5.852 42.4959 5.852C44.3199 5.852 45.7119 6.284 46.6719 7.148C47.6319 7.996 48.1119 9.26 48.1119 10.94V17.996H45.0159V16.748ZM45.0159 13.22C44.6479 13.044 44.2639 12.908 43.8639 12.812C43.4799 12.7 43.0559 12.644 42.5919 12.644C41.8399 12.644 41.2559 12.812 40.8399 13.148C40.4399 13.468 40.2399 13.868 40.2399 14.348C40.2399 14.828 40.4319 15.212 40.8159 15.5C41.2159 15.788 41.6719 15.932 42.1839 15.932C42.5999 15.932 42.9839 15.86 43.3359 15.716C43.6879 15.556 43.9839 15.356 44.2239 15.116C44.4799 14.86 44.6719 14.572 44.7999 14.252C44.9439 13.916 45.0159 13.572 45.0159 13.22Z" fill="#EF8880"/>
<path d="M54.924 18.38C54.156 18.38 53.468 18.284 52.86 18.092C52.268 17.9 51.748 17.652 51.3 17.348C50.868 17.028 50.5 16.668 50.196 16.268C49.892 15.852 49.66 15.436 49.5 15.02L52.308 13.82C52.58 14.428 52.94 14.884 53.388 15.188C53.852 15.476 54.364 15.62 54.924 15.62C55.5 15.62 55.956 15.516 56.292 15.308C56.628 15.1 56.796 14.852 56.796 14.564C56.796 14.244 56.652 13.988 56.364 13.796C56.092 13.588 55.612 13.404 54.924 13.244L53.268 12.884C52.9 12.804 52.516 12.676 52.116 12.5C51.732 12.324 51.38 12.1 51.06 11.828C50.74 11.556 50.476 11.228 50.268 10.844C50.06 10.46 49.956 10.012 49.956 9.5C49.956 8.924 50.076 8.412 50.316 7.964C50.572 7.516 50.916 7.14 51.348 6.836C51.78 6.516 52.284 6.276 52.86 6.116C53.452 5.94 54.084 5.852 54.756 5.852C55.876 5.852 56.876 6.076 57.756 6.524C58.636 6.956 59.284 7.652 59.7 8.612L56.988 9.716C56.764 9.252 56.436 8.916 56.004 8.708C55.572 8.5 55.14 8.396 54.708 8.396C54.26 8.396 53.868 8.492 53.532 8.684C53.196 8.86 53.028 9.092 53.028 9.38C53.028 9.652 53.164 9.868 53.436 10.028C53.724 10.188 54.108 10.332 54.588 10.46L56.388 10.892C57.588 11.18 58.476 11.644 59.052 12.284C59.644 12.908 59.94 13.652 59.94 14.516C59.94 15.028 59.82 15.516 59.58 15.98C59.34 16.444 58.996 16.86 58.548 17.228C58.116 17.58 57.588 17.86 56.964 18.068C56.356 18.276 55.676 18.38 54.924 18.38Z" fill="#EF8880"/>
<path d="M66.424 18.38C65.656 18.38 64.968 18.284 64.36 18.092C63.768 17.9 63.248 17.652 62.8 17.348C62.368 17.028 62 16.668 61.696 16.268C61.392 15.852 61.16 15.436 61 15.02L63.808 13.82C64.08 14.428 64.44 14.884 64.888 15.188C65.352 15.476 65.864 15.62 66.424 15.62C67 15.62 67.456 15.516 67.792 15.308C68.128 15.1 68.296 14.852 68.296 14.564C68.296 14.244 68.152 13.988 67.864 13.796C67.592 13.588 67.112 13.404 66.424 13.244L64.768 12.884C64.4 12.804 64.016 12.676 63.616 12.5C63.232 12.324 62.88 12.1 62.56 11.828C62.24 11.556 61.976 11.228 61.768 10.844C61.56 10.46 61.456 10.012 61.456 9.5C61.456 8.924 61.576 8.412 61.816 7.964C62.072 7.516 62.416 7.14 62.848 6.836C63.28 6.516 63.784 6.276 64.36 6.116C64.952 5.94 65.584 5.852 66.256 5.852C67.376 5.852 68.376 6.076 69.256 6.524C70.136 6.956 70.784 7.652 71.2 8.612L68.488 9.716C68.264 9.252 67.936 8.916 67.504 8.708C67.072 8.5 66.64 8.396 66.208 8.396C65.76 8.396 65.368 8.492 65.032 8.684C64.696 8.86 64.528 9.092 64.528 9.38C64.528 9.652 64.664 9.868 64.936 10.028C65.224 10.188 65.608 10.332 66.088 10.46L67.888 10.892C69.088 11.18 69.976 11.644 70.552 12.284C71.144 12.908 71.44 13.652 71.44 14.516C71.44 15.028 71.32 15.516 71.08 15.98C70.84 16.444 70.496 16.86 70.048 17.228C69.616 17.58 69.088 17.86 68.464 18.068C67.856 18.276 67.176 18.38 66.424 18.38Z" fill="#EF8880"/>
<path d="M75.02 4.532C74.748 4.532 74.484 4.484 74.228 4.388C73.988 4.276 73.772 4.132 73.58 3.956C73.404 3.764 73.26 3.548 73.148 3.308C73.052 3.068 73.004 2.804 73.004 2.516C73.004 2.228 73.052 1.964 73.148 1.724C73.26 1.484 73.404 1.276 73.58 1.1C73.772 0.908 73.988 0.764 74.228 0.667999C74.484 0.556 74.748 0.5 75.02 0.5C75.58 0.5 76.06 0.7 76.46 1.1C76.86 1.484 77.06 1.956 77.06 2.516C77.06 3.076 76.86 3.556 76.46 3.956C76.06 4.34 75.58 4.532 75.02 4.532ZM73.46 17.996V6.236H76.604V17.996H73.46Z" fill="#EF8880"/>
<path d="M85.1919 23.564C84.3599 23.564 83.6159 23.452 82.9599 23.228C82.3199 23.02 81.7599 22.74 81.2799 22.388C80.7999 22.052 80.3999 21.676 80.0799 21.26C79.7599 20.844 79.5279 20.428 79.3839 20.012L82.3839 18.812C82.6079 19.436 82.9759 19.916 83.4879 20.252C83.9999 20.604 84.5679 20.78 85.1919 20.78C86.1839 20.78 86.9679 20.468 87.5439 19.844C88.1199 19.236 88.4079 18.38 88.4079 17.276V16.46H88.2159C87.8479 16.972 87.3599 17.38 86.7519 17.684C86.1599 17.972 85.4559 18.116 84.6399 18.116C83.9359 18.116 83.2479 17.972 82.5759 17.684C81.9199 17.396 81.3359 16.988 80.8239 16.46C80.3119 15.916 79.8959 15.268 79.5759 14.516C79.2559 13.764 79.0959 12.924 79.0959 11.996C79.0959 11.068 79.2559 10.228 79.5759 9.476C79.8959 8.708 80.3119 8.06 80.8239 7.532C81.3359 6.988 81.9199 6.572 82.5759 6.284C83.2479 5.996 83.9359 5.852 84.6399 5.852C85.4559 5.852 86.1599 6.004 86.7519 6.308C87.3599 6.596 87.8479 6.996 88.2159 7.508H88.4079V6.236H91.4079V17.156C91.4079 18.148 91.2559 19.036 90.9519 19.82C90.6479 20.62 90.2239 21.292 89.6799 21.836C89.1359 22.396 88.4799 22.82 87.7119 23.108C86.9599 23.412 86.1199 23.564 85.1919 23.564ZM85.3119 15.284C85.6959 15.284 86.0719 15.212 86.4399 15.068C86.8239 14.924 87.1599 14.716 87.4479 14.444C87.7359 14.156 87.9679 13.812 88.1439 13.412C88.3199 12.996 88.4079 12.524 88.4079 11.996C88.4079 11.468 88.3199 10.996 88.1439 10.58C87.9679 10.164 87.7359 9.82 87.4479 9.548C87.1599 9.26 86.8239 9.044 86.4399 8.9C86.0719 8.756 85.6959 8.684 85.3119 8.684C84.9279 8.684 84.5519 8.756 84.1839 8.9C83.8159 9.044 83.4879 9.26 83.1999 9.548C82.9119 9.836 82.6799 10.188 82.5039 10.604C82.3279 11.004 82.2399 11.468 82.2399 11.996C82.2399 12.524 82.3279 12.996 82.5039 13.412C82.6799 13.812 82.9119 14.156 83.1999 14.444C83.4879 14.716 83.8159 14.924 84.1839 15.068C84.5519 15.212 84.9279 15.284 85.3119 15.284Z" fill="#EF8880"/>
<path d="M97.2199 7.772H97.4119C97.7799 7.18 98.2759 6.716 98.8999 6.38C99.5239 6.028 100.236 5.852 101.036 5.852C101.772 5.852 102.42 5.972 102.98 6.212C103.54 6.452 103.996 6.796 104.348 7.244C104.716 7.676 104.988 8.204 105.164 8.828C105.356 9.436 105.452 10.116 105.452 10.868V17.996H102.308V11.252C102.308 10.404 102.116 9.78 101.732 9.38C101.364 8.964 100.82 8.756 100.1 8.756C99.6679 8.756 99.2839 8.852 98.9479 9.044C98.6279 9.22 98.3479 9.468 98.1079 9.788C97.8839 10.092 97.7079 10.46 97.5799 10.892C97.4679 11.308 97.4119 11.756 97.4119 12.236V17.996H94.2679V6.236H97.2199V7.772Z" fill="#EF8880"/>
<path d="M107.768 6.236H110.72V7.772H110.912C111.28 7.196 111.776 6.732 112.4 6.38C113.04 6.028 113.744 5.852 114.512 5.852C115.408 5.852 116.16 6.06 116.768 6.476C117.376 6.892 117.808 7.404 118.064 8.012C118.432 7.42 118.952 6.916 119.624 6.5C120.296 6.068 121.112 5.852 122.072 5.852C122.792 5.852 123.416 5.972 123.944 6.212C124.472 6.436 124.904 6.756 125.24 7.172C125.592 7.588 125.856 8.092 126.032 8.684C126.208 9.26 126.296 9.892 126.296 10.58V17.996H123.152V11.156C123.152 9.556 122.496 8.756 121.184 8.756C120.768 8.756 120.4 8.852 120.08 9.044C119.76 9.22 119.488 9.468 119.264 9.788C119.056 10.092 118.888 10.46 118.76 10.892C118.648 11.324 118.592 11.788 118.592 12.284V17.996H115.448V11.156C115.448 9.556 114.76 8.756 113.384 8.756C112.984 8.756 112.632 8.852 112.328 9.044C112.024 9.22 111.768 9.468 111.56 9.788C111.352 10.092 111.192 10.46 111.08 10.892C110.968 11.324 110.912 11.788 110.912 12.284V17.996H107.768V6.236Z" fill="#EF8880"/>
<path d="M140.404 15.164C139.86 16.124 139.124 16.9 138.196 17.492C137.284 18.084 136.164 18.38 134.836 18.38C133.94 18.38 133.108 18.228 132.34 17.924C131.588 17.604 130.932 17.164 130.372 16.604C129.812 16.044 129.372 15.388 129.052 14.636C128.748 13.868 128.596 13.028 128.596 12.116C128.596 11.268 128.748 10.468 129.052 9.716C129.356 8.948 129.78 8.284 130.324 7.724C130.868 7.148 131.508 6.692 132.244 6.356C132.996 6.02 133.82 5.852 134.716 5.852C135.66 5.852 136.5 6.012 137.236 6.332C137.972 6.636 138.588 7.068 139.084 7.628C139.58 8.172 139.956 8.82 140.212 9.572C140.468 10.324 140.596 11.14 140.596 12.02C140.596 12.132 140.596 12.228 140.596 12.308C140.58 12.404 140.572 12.492 140.572 12.572C140.556 12.652 140.548 12.74 140.548 12.836H131.692C131.756 13.316 131.884 13.732 132.076 14.084C132.284 14.42 132.532 14.708 132.82 14.948C133.124 15.172 133.452 15.34 133.804 15.452C134.156 15.548 134.516 15.596 134.884 15.596C135.604 15.596 136.196 15.436 136.66 15.116C137.14 14.78 137.516 14.364 137.788 13.868L140.404 15.164ZM137.548 10.604C137.532 10.396 137.46 10.164 137.332 9.908C137.22 9.652 137.044 9.412 136.804 9.188C136.58 8.964 136.292 8.78 135.94 8.636C135.604 8.492 135.196 8.42 134.716 8.42C134.044 8.42 133.452 8.612 132.94 8.996C132.428 9.38 132.068 9.916 131.86 10.604H137.548Z" fill="#EF8880"/>
<path d="M145.72 7.772H145.912C146.28 7.18 146.776 6.716 147.4 6.38C148.024 6.028 148.736 5.852 149.536 5.852C150.272 5.852 150.92 5.972 151.48 6.212C152.04 6.452 152.496 6.796 152.848 7.244C153.216 7.676 153.488 8.204 153.664 8.828C153.856 9.436 153.952 10.116 153.952 10.868V17.996H150.808V11.252C150.808 10.404 150.616 9.78 150.232 9.38C149.864 8.964 149.32 8.756 148.6 8.756C148.168 8.756 147.784 8.852 147.448 9.044C147.128 9.22 146.848 9.468 146.608 9.788C146.384 10.092 146.208 10.46 146.08 10.892C145.968 11.308 145.912 11.756 145.912 12.236V17.996H142.768V6.236H145.72V7.772Z" fill="#EF8880"/>
<path d="M157.564 8.924H155.5V6.236H157.564V2.636H160.708V6.236H163.588V8.924H160.708V13.484C160.708 13.756 160.732 14.012 160.78 14.252C160.844 14.476 160.956 14.668 161.116 14.828C161.34 15.084 161.66 15.212 162.076 15.212C162.348 15.212 162.564 15.188 162.724 15.14C162.884 15.076 163.036 14.996 163.18 14.9L164.068 17.66C163.7 17.836 163.3 17.964 162.868 18.044C162.452 18.14 161.988 18.188 161.476 18.188C160.884 18.188 160.348 18.1 159.868 17.924C159.404 17.732 159.012 17.476 158.692 17.156C157.94 16.436 157.564 15.412 157.564 14.084V8.924Z" fill="#EF8880"/>
<path d="M183.768 0.812004H186.912V5.972L186.72 7.652H186.912C187.2 7.156 187.648 6.732 188.256 6.38C188.864 6.028 189.616 5.852 190.512 5.852C191.264 5.852 191.976 6.012 192.648 6.332C193.336 6.636 193.936 7.068 194.448 7.628C194.976 8.172 195.392 8.828 195.696 9.596C196 10.364 196.152 11.204 196.152 12.116C196.152 13.028 196 13.868 195.696 14.636C195.392 15.404 194.976 16.068 194.448 16.628C193.936 17.172 193.336 17.604 192.648 17.924C191.976 18.228 191.264 18.38 190.512 18.38C189.616 18.38 188.864 18.204 188.256 17.852C187.648 17.5 187.2 17.076 186.912 16.58H186.72V17.996H183.768V0.812004ZM189.864 15.476C190.28 15.476 190.672 15.396 191.04 15.236C191.424 15.076 191.76 14.852 192.048 14.564C192.336 14.276 192.568 13.924 192.744 13.508C192.92 13.092 193.008 12.628 193.008 12.116C193.008 11.604 192.92 11.14 192.744 10.724C192.568 10.308 192.336 9.95601 192.048 9.668C191.76 9.38 191.424 9.156 191.04 8.996C190.672 8.836 190.28 8.756 189.864 8.756C189.448 8.756 189.048 8.836 188.664 8.996C188.296 9.14 187.968 9.356 187.68 9.644C187.392 9.932 187.16 10.284 186.984 10.7C186.808 11.116 186.72 11.588 186.72 12.116C186.72 12.644 186.808 13.116 186.984 13.532C187.16 13.948 187.392 14.3 187.68 14.588C187.968 14.876 188.296 15.1 188.664 15.26C189.048 15.404 189.448 15.476 189.864 15.476Z" fill="#020202"/>
<path d="M199.438 18.14C198.862 18.14 198.366 17.94 197.95 17.54C197.55 17.124 197.35 16.628 197.35 16.052C197.35 15.476 197.55 14.988 197.95 14.588C198.366 14.188 198.862 13.988 199.438 13.988C200.014 13.988 200.502 14.188 200.902 14.588C201.302 14.988 201.502 15.476 201.502 16.052C201.502 16.628 201.302 17.124 200.902 17.54C200.502 17.94 200.014 18.14 199.438 18.14Z" fill="#EF8880"/>
</svg>
