<svg width="24" height="24" viewBox="0 0 24 24" fill="none" xmlns="http://www.w3.org/2000/svg">
<path d="M4.92815 19.5711C2.77855 17.4215 2.77855 13.9425 4.92815 11.7929L12.3528 4.3683C13.9155 2.80559 16.4469 2.80559 18.0096 4.3683C19.5723 5.931 19.5723 8.46245 18.0096 10.0252L11.9992 16.0356C11.0234 17.0114 9.43949 17.0114 8.46368 16.0356C7.48788 15.0598 7.48788 13.4758 8.46368 12.5L13.767 7.19673L15.1812 8.61094L9.81426 13.9779C9.42535 14.3668 10.1325 15.0739 10.5214 14.685L16.5954 8.61094C17.3732 7.83312 17.3732 6.56033 16.5954 5.78251C15.8176 5.00469 14.5448 5.00469 13.767 5.78251L6.34236 13.2071C4.97765 14.5718 4.97765 16.7922 6.34236 18.1569C7.70708 19.5216 9.92739 19.5216 11.2921 18.1569L18.0096 11.4394L19.4238 12.8536L12.7063 19.5711C10.5567 21.7207 7.07775 21.7207 4.92815 19.5711Z" fill="#677294"/>
</svg>
