<svg width="48" height="48" viewBox="0 0 48 48" fill="none" xmlns="http://www.w3.org/2000/svg">
<g clip-path="url(#clip0)">
<path d="M34.816 8.14025H17.6604V6.9327C17.6604 4.93481 16.0356 3.31006 14.0377 3.31006C12.0398 3.31006 10.4151 4.93481 10.4151 6.9327V8.14025H9.81132C8.81268 8.14025 8 9.03806 8 10.1424V20.6287C8 21.733 8.81268 22.6308 9.81132 22.6308H10.4151V29.4033L13.434 36.0448V40.744H40V13.3242L34.816 8.14025ZM35.1698 10.2015L37.9387 12.9704H35.1698V10.2015ZM14.0377 34.4545L13.3289 32.895H14.7472L14.0377 34.4545ZM15.2954 31.6874H12.7795L11.9559 29.8761H16.1183L15.2954 31.6874ZM16.4528 28.6685H11.6226V15.9893H16.4528V28.6685ZM14.0377 4.51761C15.3697 4.51761 16.4528 5.60078 16.4528 6.9327V14.7818H11.6226V6.9327C11.6226 5.60078 12.7058 4.51761 14.0377 4.51761ZM9.81132 21.4233C9.48408 21.4233 9.20755 21.0592 9.20755 20.6287V10.1424C9.20755 9.71187 9.48408 9.34779 9.81132 9.34779H10.4151V21.4233H9.81132ZM14.6415 39.5365V36.0448L17.6604 29.4033V9.34779H33.9623V14.178H38.7925V39.5365H14.6415Z" fill="white"/>
<path d="M36.5543 30.2417L35.1698 31.6262V30.6686H27.9246V37.9139H35.1698V33.3336L37.408 31.0954L36.5543 30.2417ZM33.9623 36.7063H29.1321V31.8761H33.9623V32.8337L32.151 34.645L30.7665 33.2606L29.9128 34.1143L32.151 36.3525L33.9623 34.5412V36.7063Z" fill="white"/>
<path d="M27.9246 27.0459H35.1698V19.8007H27.9246V27.0459ZM29.1321 21.0082H33.9623V25.8384H29.1321V21.0082Z" fill="white"/>
<path d="M26.1132 30.6686H20.0754V31.8761H26.1132V30.6686Z" fill="white"/>
<path d="M26.1132 33.0836H20.0754V34.2912H26.1132V33.0836Z" fill="white"/>
<path d="M26.1132 19.8007H20.0754V21.0082H26.1132V19.8007Z" fill="white"/>
<path d="M26.1132 22.2157H20.0754V23.4232H26.1132V22.2157Z" fill="white"/>
<path d="M31.5471 12.5553H20.0754V13.7628H31.5471V12.5553Z" fill="white"/>
<path d="M31.5471 14.9705H30.3396V16.178H31.5471V14.9705Z" fill="white"/>
<path d="M29.132 14.9705H20.0754V16.178H29.132V14.9705Z" fill="white"/>
<path d="M21.283 24.6307H20.0754V25.8383H21.283V24.6307Z" fill="white"/>
<path d="M23.698 24.6307H22.4905V25.8383H23.698V24.6307Z" fill="white"/>
<path d="M26.1133 24.6307H24.9058V25.8383H26.1133V24.6307Z" fill="white"/>
<path d="M21.283 35.4988H20.0754V36.7063H21.283V35.4988Z" fill="white"/>
<path d="M23.698 35.4988H22.4905V36.7063H23.698V35.4988Z" fill="white"/>
<path d="M26.1133 35.4988H24.9058V36.7063H26.1133V35.4988Z" fill="white"/>
</g>
<defs>
<clipPath id="clip0">
<rect width="32" height="37.434" fill="white" transform="translate(8 3.31006)"/>
</clipPath>
</defs>
</svg>
