<svg width="48" height="48" viewBox="0 0 48 48" fill="none" xmlns="http://www.w3.org/2000/svg">
<path d="M40.8 8.82576C40.8 7.9294 40.0705 7.19995 39.1741 7.19995H8.82576C7.9294 7.19995 7.19995 7.9294 7.19995 8.82576C7.19995 9.53136 7.65464 10.1275 8.28382 10.3518V29.9612H14.6353L11.9251 40.8H16.2942L17.2426 37.0064H30.7573L31.7057 40.8H36.0748L33.3646 29.9612H39.7161V10.3518C40.3453 10.1275 40.8 9.53136 40.8 8.82576ZM15.4477 39.7161H13.3135L15.7517 29.9612H17.8864L15.4477 39.7161ZM28.9966 29.9612L29.945 33.7548H18.0555L19.0038 29.9612H28.9966ZM17.5135 35.9225L17.7845 34.8387H30.2154L30.4864 35.9225H17.5135ZM34.6864 39.7161H32.5522L30.113 29.9612H32.2477L34.6864 39.7161ZM39.1741 9.36769H37.5483V10.4516H38.6322V28.8774H9.36769V10.4516H36.4645V9.36769H8.82576C8.52661 9.36769 8.28382 9.12491 8.28382 8.82576C8.28382 8.52661 8.52661 8.28382 8.82576 8.28382H39.1741C39.4733 8.28382 39.7161 8.52661 39.7161 8.82576C39.7161 9.12491 39.4733 9.36769 39.1741 9.36769Z" fill="white"/>
<path d="M17.4968 12.6191C13.6122 12.6191 10.4517 15.7797 10.4517 19.6643C10.4517 23.5489 13.6122 26.7095 17.4968 26.7095C21.3814 26.7095 24.542 23.5489 24.542 19.6643C24.542 15.7797 21.3814 12.6191 17.4968 12.6191ZM17.4968 13.703C18.022 13.703 18.5287 13.7778 19.0142 13.9062L17.1175 19.1224H11.5632C11.8379 16.0886 14.3926 13.703 17.4968 13.703ZM11.5632 20.2062H17.2725L21.3088 24.2426C20.2742 25.1048 18.9454 25.6256 17.4968 25.6256C14.3926 25.6256 11.8379 23.24 11.5632 20.2062ZM22.0751 23.4763L18.1238 19.525L20.032 14.2769C22.0534 15.2324 23.4581 17.2847 23.4581 19.6643C23.4581 21.1129 22.9373 22.4417 22.0751 23.4763Z" fill="white"/>
<path d="M35.3806 13.1612C34.1851 13.1612 33.2128 14.1334 33.2128 15.3289C33.2128 15.73 33.3294 16.1007 33.5201 16.4231L31.5979 18.3454C31.2749 18.1551 30.9042 18.0386 30.5032 18.0386C30.1379 18.0386 29.7987 18.1378 29.4963 18.2982L27.2386 15.1376C27.58 14.7545 27.7935 14.2554 27.7935 13.7031C27.7935 12.5076 26.8213 11.5354 25.6257 11.5354C24.4302 11.5354 23.458 12.5076 23.458 13.7031C23.458 14.8987 24.4302 15.8709 25.6257 15.8709C25.8767 15.8709 26.114 15.8194 26.3384 15.7408L28.6877 19.0298C28.4666 19.3691 28.3354 19.7723 28.3354 20.2064C28.3354 21.4019 29.3077 22.3741 30.5032 22.3741C31.6987 22.3741 32.6709 21.4019 32.6709 20.2064C32.6709 19.8053 32.5544 19.4347 32.3636 19.1122L34.2859 17.19C34.6089 17.3802 34.9796 17.4967 35.3806 17.4967C36.5761 17.4967 37.5483 16.5245 37.5483 15.3289C37.5483 14.1334 36.5761 13.1612 35.3806 13.1612ZM24.5419 13.7031C24.5419 13.1054 25.028 12.6193 25.6257 12.6193C26.2235 12.6193 26.7096 13.1054 26.7096 13.7031C26.7096 14.3009 26.2235 14.787 25.6257 14.787C25.028 14.787 24.5419 14.3009 24.5419 13.7031ZM30.5032 21.2902C29.9054 21.2902 29.4193 20.8041 29.4193 20.2064C29.4193 19.6086 29.9054 19.1225 30.5032 19.1225C31.1009 19.1225 31.587 19.6086 31.587 20.2064C31.587 20.8041 31.1009 21.2902 30.5032 21.2902ZM35.3806 16.4128C34.7828 16.4128 34.2967 15.9267 34.2967 15.3289C34.2967 14.7312 34.7828 14.2451 35.3806 14.2451C35.9783 14.2451 36.4645 14.7312 36.4645 15.3289C36.4645 15.9267 35.9783 16.4128 35.3806 16.4128Z" fill="white"/>
<path d="M29.9612 27.7935H37.5483V23.458H29.9612V27.7935ZM31.0451 24.5419H36.4644V26.7096H31.0451V24.5419Z" fill="white"/>
</svg>
