<svg width="48" height="48" viewBox="0 0 48 48" fill="none" xmlns="http://www.w3.org/2000/svg">
<path d="M23.7999 15.871C19.3176 15.871 15.6709 19.5177 15.6709 24C15.6709 28.4824 19.3176 32.129 23.7999 32.129C28.2823 32.129 31.929 28.4824 31.929 24C31.929 19.5177 28.2823 15.871 23.7999 15.871ZM24.3419 20.2065H20.0064V21.2903H24.3419V22.3742H20.0064V23.4581H24.3419V24.5419H18.9225V18.928C19.2542 18.6088 19.6173 18.3227 20.0064 18.0729V19.1226H24.3419V20.2065ZM24.3419 16.9825V18.0387H20.0622C21.1472 17.3559 22.4261 16.9548 23.7999 16.9548C23.9831 16.9548 24.1625 16.9684 24.3419 16.9825ZM16.7548 24C16.7548 22.6262 17.1558 21.3472 17.8386 20.2623V25.6258H24.3419V29.9613H27.5377C26.4527 30.6441 25.1737 31.0452 23.7999 31.0452C19.9153 31.0452 16.7548 27.8846 16.7548 24ZM28.8719 28.8774H25.4257V17.1516C28.0054 17.764 30.0354 19.7946 30.6484 22.3742H28.6774V23.4581H26.5096V27.7936H29.7271C29.4772 28.1827 29.1911 28.5458 28.8719 28.8774ZM27.5935 26.7097V24.5419H28.6774V26.7097H27.5935ZM30.3015 26.7097H29.7612V23.4581H30.8175C30.8315 23.6375 30.8451 23.8168 30.8451 24C30.8451 24.9598 30.6505 25.8751 30.3015 26.7097Z" fill="#020202"/>
<path d="M40.6 11.5354H34.0968V7.19995H17.8387V15.62C15.2195 17.4886 13.5032 20.5446 13.5032 24C13.5032 26.0897 14.133 28.0336 15.2071 29.6588L14.0452 30.8208L13.5211 30.2967L8.03835 35.2809C7.37827 35.8808 7 36.736 7 37.628C7 39.3774 8.42258 40.8 10.1719 40.8C11.064 40.8 11.9191 40.4217 12.5191 39.7616L17.5033 34.2788L16.9792 33.7548L18.1411 32.5929C19.7664 33.667 21.7103 34.2967 23.8 34.2967C27.2554 34.2967 30.3114 32.5804 32.18 29.9612H40.6V11.5354ZM18.9226 8.28382H33.0129V11.5354H24.3419V13.7308C24.1615 13.7211 23.9832 13.7032 23.8 13.7032C22.036 13.7032 20.3755 14.1503 18.9226 14.935V8.28382ZM11.7175 39.0327C11.3225 39.4673 10.7594 39.7161 10.1719 39.7161C9.02088 39.7161 8.08387 38.7791 8.08387 37.628C8.08387 37.0411 8.33262 36.4775 8.76725 36.0824L13.4853 31.7935L16.0059 34.3141L11.7175 39.0327ZM16.2129 32.9885L14.8115 31.587L15.8552 30.5433C16.2763 31.0538 16.7462 31.5231 17.2567 31.9447L16.2129 32.9885ZM23.8 33.2129C18.7199 33.2129 14.5871 29.0801 14.5871 24C14.5871 18.9198 18.7199 14.787 23.8 14.787C28.8801 14.787 33.0129 18.9198 33.0129 24C33.0129 29.0801 28.8801 33.2129 23.8 33.2129ZM34.0968 24V19.1225H35.1806V26.7096H33.7228C33.9597 25.8447 34.0968 24.9391 34.0968 24ZM39.5161 28.8774H32.865C33.0536 28.5289 33.2156 28.1647 33.3635 27.7935H38.4323V15.8709H35.1806V18.0387H33.0129V19.4293C31.5573 16.5072 28.7587 14.3768 25.4258 13.8446V12.6193H39.5161V28.8774ZM36.2645 26.7096V16.9548H37.3484V26.7096H36.2645Z" fill="#020202"/>
<path d="M21.0902 9.36768H20.0063V10.4515H21.0902V9.36768Z" fill="#020202"/>
<path d="M31.9289 9.36768H22.1741V10.4515H31.9289V9.36768Z" fill="#020202"/>
<path d="M38.4322 13.7031H29.7612V14.787H38.4322V13.7031Z" fill="#020202"/>
<path d="M23.258 11.5354H20.0063V12.6193H23.258V11.5354Z" fill="#020202"/>
<path d="M9.70966 38.6322C10.009 38.6322 10.2516 38.3896 10.2516 38.0903C10.2516 37.791 10.009 37.5483 9.70966 37.5483C9.41036 37.5483 9.16772 37.791 9.16772 38.0903C9.16772 38.3896 9.41036 38.6322 9.70966 38.6322Z" fill="#020202"/>
</svg>
