<svg width="48" height="48" viewBox="0 0 48 48" fill="none" xmlns="http://www.w3.org/2000/svg">
<path d="M38.7466 23.4185C36.4813 23.4185 34.3786 22.2962 33.1218 20.4154L32.6709 19.7407L32.22 20.4154C30.9633 22.2962 28.8606 23.4185 26.5953 23.4185H24.5419V32.0879C24.5419 34.1833 25.4876 36.1528 27.0678 37.4746H15.8709V35.3121H22.9161V25.581H11.5354V29.9059H8.28382V8.28119H32.129V18.0123H33.2129V7.19995H7.19995V30.6704L15.1046 38.5558H28.7338L32.6709 40.8L37.2503 38.1898C39.4397 36.9421 40.8 34.6034 40.8 32.0879V23.4185H38.7466ZM14.787 36.7102L9.05012 30.9872H14.787V36.7102ZM12.6193 26.6622H21.8322V34.2309H15.8709V29.9059H12.6193V26.6622ZM39.7161 32.0879C39.7161 34.2168 38.565 36.195 36.7127 37.2513L32.6709 39.5554L28.6292 37.2513C26.7768 36.195 25.6258 34.2168 25.6258 32.0879V24.4998H26.5953C28.969 24.4998 31.1887 23.4374 32.6709 21.6247C34.1531 23.4374 36.3729 24.4998 38.7466 24.4998H39.7161V32.0879Z" fill="white"/>
<path d="M37.5482 32.0879C37.5482 33.4427 36.8155 34.7018 35.6368 35.3738L36.1744 36.3123C37.6902 35.4484 38.6321 33.8298 38.6321 32.0879V28.8247H37.5482V32.0879Z" fill="white"/>
<path d="M29.9612 9.36243H10.4515V12.6061H29.9612V9.36243ZM28.8773 11.5249H11.5354V10.4437H28.8773V11.5249Z" fill="white"/>
<path d="M37.1652 25.7394L29.9613 32.9258L28.1767 31.1456L27.4104 31.91L29.9613 34.4547L37.9315 26.5038L37.1652 25.7394Z" fill="white"/>
<path d="M20.7483 27.7434H13.7031V28.8246H20.7483V27.7434Z" fill="white"/>
<path d="M20.7484 29.9059H16.9548V30.9871H20.7484V29.9059Z" fill="white"/>
<path d="M20.7484 32.0684H16.9548V33.1496H20.7484V32.0684Z" fill="white"/>
<path d="M27.7935 14.7687H10.4515V15.8499H27.7935V14.7687Z" fill="white"/>
<path d="M27.7935 16.9312H10.4515V18.0124H27.7935V16.9312Z" fill="white"/>
<path d="M27.7935 19.0935H10.4515V20.1747H27.7935V19.0935Z" fill="white"/>
<path d="M20.7483 21.256H10.4515V22.3372H20.7483V21.256Z" fill="white"/>
<path d="M20.7483 23.4186H10.4515V24.4998H20.7483V23.4186Z" fill="white"/>
<path d="M29.9613 14.7687H28.8774V15.8499H29.9613V14.7687Z" fill="white"/>
<path d="M29.9613 16.9312H28.8774V18.0124H29.9613V16.9312Z" fill="white"/>
<path d="M29.9613 19.0935H28.8774V20.1747H29.9613V19.0935Z" fill="white"/>
<path d="M22.9161 21.256H21.8323V22.3372H22.9161V21.256Z" fill="white"/>
<path d="M22.9161 23.4186H21.8323V24.4998H22.9161V23.4186Z" fill="white"/>
</svg>
