<svg width="120" height="120" viewBox="0 0 120 120" fill="none" xmlns="http://www.w3.org/2000/svg">
<path d="M60.5 23.96C53.4708 23.96 46.5995 26.0443 40.755 29.9495C34.9105 33.8547 30.3552 39.4053 27.6653 45.8994C24.9754 52.3935 24.2715 59.5394 25.6429 66.4335C27.0142 73.3276 30.399 79.6602 35.3694 84.6305C40.3398 89.6009 46.6724 92.9858 53.5665 94.3571C60.4606 95.7284 67.6065 95.0246 74.1005 92.3346C80.5946 89.6447 86.1452 85.0895 90.0504 79.2449C93.9556 73.4004 96.04 66.5291 96.04 59.5C96.0294 50.0774 92.2816 41.0438 85.6189 34.3811C78.9561 27.7183 69.9225 23.9705 60.5 23.96ZM60.5 92.04C54.0642 92.04 47.7729 90.1315 42.4217 86.556C37.0705 82.9804 32.8998 77.8984 30.4369 71.9525C27.9741 66.0066 27.3297 59.4639 28.5852 53.1517C29.8408 46.8396 32.9399 41.0415 37.4907 36.4907C42.0415 31.9399 47.8396 28.8408 54.1517 27.5852C60.4639 26.3296 67.0066 26.974 72.9525 29.4369C78.8984 31.8998 83.9805 36.0705 87.556 41.4217C91.1315 46.7729 93.04 53.0642 93.04 59.5C93.0294 68.1269 89.5977 76.3974 83.4975 82.4975C77.3974 88.5977 69.1269 92.0294 60.5 92.04Z" fill="#EF8880"/>
<path d="M39.9001 58H32.3701C31.9723 58 31.5908 58.158 31.3095 58.4393C31.0282 58.7206 30.8701 59.1022 30.8701 59.5C30.8701 59.8978 31.0282 60.2794 31.3095 60.5607C31.5908 60.842 31.9723 61 32.3701 61H39.9001C40.2979 61 40.6795 60.842 40.9608 60.5607C41.2421 60.2794 41.4001 59.8978 41.4001 59.5C41.4001 59.1022 41.2421 58.7206 40.9608 58.4393C40.6795 58.158 40.2979 58 39.9001 58Z" fill="#EF8880"/>
<path d="M88.6296 58H81.0996C80.7018 58 80.3203 58.158 80.0389 58.4393C79.7576 58.7206 79.5996 59.1022 79.5996 59.5C79.5996 59.8978 79.7576 60.2794 80.0389 60.5607C80.3203 60.842 80.7018 61 81.0996 61H88.6296C89.0274 61 89.409 60.842 89.6903 60.5607C89.9716 60.2794 90.1296 59.8978 90.1296 59.5C90.1296 59.1022 89.9716 58.7206 89.6903 58.4393C89.409 58.158 89.0274 58 88.6296 58Z" fill="#EF8880"/>
<path d="M60.5 78.6C60.1022 78.6 59.7206 78.758 59.4393 79.0393C59.158 79.3206 59 79.7022 59 80.1V87.63C59 88.0278 59.158 88.4093 59.4393 88.6906C59.7206 88.9719 60.1022 89.13 60.5 89.13C60.8978 89.13 61.2794 88.9719 61.5607 88.6906C61.842 88.4093 62 88.0278 62 87.63V80.1C62 79.7022 61.842 79.3206 61.5607 79.0393C61.2794 78.758 60.8978 78.6 60.5 78.6Z" fill="#EF8880"/>
<path d="M60.5 13C51.3032 13 42.3129 15.7272 34.666 20.8367C27.0191 25.9461 21.0591 33.2085 17.5396 41.7052C14.0201 50.202 13.0993 59.5516 14.8935 68.5717C16.6877 77.5918 21.1164 85.8773 27.6196 92.3805C34.1227 98.8836 42.4082 103.312 51.4283 105.107C60.4484 106.901 69.798 105.98 78.2948 102.46C86.7916 98.9409 94.0539 92.9809 99.1634 85.334C104.273 77.6871 107 68.6968 107 59.5C106.987 47.1715 102.083 35.3517 93.3659 26.6342C84.6483 17.9166 72.8285 13.0132 60.5 13ZM60.5 103C51.8965 103 43.4863 100.449 36.3327 95.6689C29.1792 90.8891 23.6037 84.0953 20.3113 76.1467C17.0188 68.1981 16.1574 59.4517 17.8359 51.0136C19.5143 42.5754 23.6573 34.8244 29.7409 28.7409C35.8245 22.6573 43.5754 18.5143 52.0136 16.8358C60.4518 15.1574 69.1982 16.0188 77.1467 19.3112C85.0953 22.6037 91.8891 28.1792 96.669 35.3327C101.449 42.4862 104 50.8965 104 59.5C103.989 71.0337 99.403 82.0919 91.2475 90.2474C83.0919 98.403 72.0337 102.989 60.5 103Z" fill="#EF8880"/>
<path d="M60.5 40.4C60.8978 40.4 61.2794 40.242 61.5607 39.9607C61.842 39.6794 62 39.2978 62 38.9V31.37C62 30.9722 61.842 30.5906 61.5607 30.3093C61.2794 30.028 60.8978 29.87 60.5 29.87C60.1022 29.87 59.7206 30.028 59.4393 30.3093C59.158 30.5906 59 30.9722 59 31.37V38.9C59 39.2978 59.158 39.6794 59.4393 39.9607C59.7206 40.242 60.1022 40.4 60.5 40.4Z" fill="#EF8880"/>
<path d="M75.95 37.67C75.7896 37.5552 75.6079 37.4734 75.4156 37.4293C75.2233 37.3852 75.0242 37.3797 74.8297 37.4132C74.6353 37.4467 74.4495 37.5185 74.283 37.6244C74.1165 37.7303 73.9727 37.8682 73.86 38.03L59.28 58.63C59.0783 58.928 58.9897 59.2882 59.03 59.6457C59.0704 60.0032 59.237 60.3345 59.5 60.58L74.04 74.5C74.1825 74.6366 74.3505 74.7438 74.5344 74.8154C74.7183 74.8871 74.9145 74.9218 75.1118 74.9176C75.3091 74.9135 75.5037 74.8705 75.6844 74.7911C75.8651 74.7117 76.0284 74.5975 76.165 74.455C76.3016 74.3126 76.4087 74.1446 76.4804 73.9607C76.552 73.7768 76.5868 73.5805 76.5826 73.3832C76.5784 73.1859 76.5354 72.9913 76.456 72.8106C76.3766 72.6299 76.2625 72.4666 76.12 72.33L62.5 59.31L76.31 39.76C76.5393 39.4351 76.6302 39.0324 76.5627 38.6405C76.4952 38.2486 76.2748 37.8995 75.95 37.67Z" fill="#EF8880"/>
</svg>
