<svg width="120" height="120" viewBox="0 0 120 120" fill="none" xmlns="http://www.w3.org/2000/svg">
<path d="M74.6 89.1H45C44.2 89.1 43.5 89.8 43.5 90.6C43.5 91.4 44.2 92.1 45 92.1H74.7C75.5 92.1 76.2 91.4 76.2 90.6C76.2 89.8 75.5 89.1 74.6 89.1Z" fill="#EF8880"/>
<path d="M74.6 81.2H45C44.2 81.2 43.5 81.9 43.5 82.7C43.5 83.5 44.2 84.2 45 84.2H74.7C75.5 84.2 76.2 83.5 76.2 82.7C76.2 81.9 75.5 81.2 74.6 81.2Z" fill="#EF8880"/>
<path d="M59.7998 36.4C49.0998 36.4 40.2998 45.1 40.2998 55.9C40.2998 66.7 49.0998 75.4 59.7998 75.4C70.4998 75.4 79.2998 66.7 79.2998 55.9C79.2998 45.1 70.4998 36.4 59.7998 36.4ZM59.7998 72.4C50.6998 72.4 43.2998 65 43.2998 55.9C43.2998 46.8 50.6998 39.4 59.7998 39.4C68.8998 39.4 76.2998 46.8 76.2998 55.9C76.2998 65 68.8998 72.4 59.7998 72.4Z" fill="#EF8880"/>
<path d="M69.1 46.7C68.4 46.2 67.5 46.4 67 47.1L57.1 61.5L52.3 57.4C51.7 56.9 50.7 57 50.2 57.6C49.7 58.2 49.8 59.2 50.4 59.7L56.5 64.9C56.8 65.1 57.1 65.3 57.5 65.3C57.6 65.3 57.6 65.3 57.7 65.3C58.1 65.2 58.5 65 58.7 64.7L69.5 48.9C70 48.1 69.8 47.2 69.1 46.7Z" fill="#EF8880"/>
<path d="M90.1 23.6H77.9C77.1 20.9 74.6 19 71.7 19H66.5C65.6 16.1 62.9 14 59.8 14C56.7 14 54 16.1 53.1 19H47.9C45 19 42.5 20.9 41.7 23.6H29.5C28.7 23.6 28 24.3 28 25.1V105.4C28 106.2 28.7 106.9 29.5 106.9H90.1C90.9 106.9 91.6 106.2 91.6 105.4V25.1C91.6 24.3 90.9 23.6 90.1 23.6ZM47.9 21.9H54.3C55.1 21.9 55.7 21.3 55.8 20.5C56 18.5 57.7 16.9 59.8 16.9C61.9 16.9 63.6 18.5 63.8 20.5C63.9 21.3 64.5 21.9 65.3 21.9H71.7C73.5 21.9 75 23.3 75.1 25.1C75.1 25.2 75.1 25.3 75.1 25.3V26.5H44.5V25.3C44.5 25.2 44.5 25.1 44.5 25.1C44.6 23.4 46.1 21.9 47.9 21.9ZM88.6 103.9H31V26.6H41.4V28.1C41.4 28.9 42.1 29.6 42.9 29.6H76.6C77.4 29.6 78.1 28.9 78.1 28.1V26.6H88.5V103.9H88.6Z" fill="#EF8880"/>
</svg>
