<svg width="120" height="120" viewBox="0 0 120 120" fill="none" xmlns="http://www.w3.org/2000/svg">
<path d="M46.3329 70.1C41.8329 66.1 40.2329 64.6 39.4329 63.9C38.6329 63.1 38.6329 63.1 37.3329 62.1C35.4329 60.5 33.7329 60 32.4329 60.2C31.4329 53.9 28.5329 34.9 27.6329 32.2C27.0329 30.2 25.2329 29 23.2329 29.2C21.3329 29.4 19.3329 30.9 19.1329 33.9C18.8329 37.9 18.1329 58 18.0329 63.9C17.7329 70.5 19.5329 72.5 21.4329 74.7C21.6329 74.9 21.7329 75.1 21.9329 75.3C24.1329 77.9 29.1329 83.4 32.9329 87C36.0329 90 36.0329 90.8 36.1329 93V93.8C36.2329 96.7 35.5329 104.3 35.5329 104.4C35.5329 104.8 35.6329 105.2 35.9329 105.6C36.2329 105.9 36.6329 106.1 37.0329 106.1L52.3329 105.7C53.1329 105.7 53.8329 105 53.8329 104.2C53.8329 101.8 53.8329 99.5 53.9329 97.3C54.1329 86 54.3329 77.2 46.3329 70.1ZM50.8329 102.7L38.6329 103C38.7329 101.4 38.9329 99 39.0329 96.8L50.9329 95.8C50.9329 96.3 50.9329 96.7 50.9329 97.2C50.9329 98.9 50.8329 100.8 50.8329 102.7ZM51.0329 92.8L39.1329 93.8V93.7V93C39.1329 90.1 38.9329 88.5 35.0329 84.9C31.2329 81.3 26.3329 75.9 24.2329 73.4C24.0329 73.2 23.8329 73 23.7329 72.8C22.0329 70.9 20.8329 69.5 21.0329 64C21.2329 57 21.8329 37.9 22.1329 34.2C22.2329 32.9 23.0329 32.4 23.6329 32.3H23.7329C24.0329 32.3 24.6329 32.4 24.8329 33.2C25.5329 35.6 28.5329 54.4 29.7329 62.2C29.0329 63.5 29.2329 65.4 30.1329 67.2C32.2329 71.3 35.7329 77 35.9329 77.3C36.3329 78 37.3329 78.2 38.0329 77.8C38.7329 77.4 38.9329 76.4 38.5329 75.7C38.5329 75.6 34.8329 69.8 32.9329 65.9C32.3329 64.7 32.3329 63.8 32.5329 63.5L32.6329 63.4C32.9329 63.2 33.9329 63.2 35.5329 64.6C36.7329 65.6 36.7329 65.6 37.5329 66.3C38.3329 67 40.0329 68.5 44.5329 72.5C50.3329 77.6 51.0329 84.2 51.0329 92.8Z" fill="#EF8880"/>
<path d="M101.133 63.8C100.933 58 100.333 37.9 100.033 33.8C99.8329 30.9 97.7329 29.4 95.9329 29.1C93.9329 28.9 92.1329 30.1 91.5329 32.1C90.7329 34.8 87.7329 53.8 86.7329 60.1C85.4329 60 83.7329 60.4 81.8329 62C80.5329 63 80.5329 63 79.7329 63.8C78.9329 64.5 77.2329 66 72.8329 70C64.8329 77.1 65.0329 85.9 65.2329 97.1C65.2329 99.3 65.3329 101.6 65.3329 104C65.3329 104.8 65.9329 105.5 66.8329 105.5L82.1329 105.9C82.5329 105.9 82.9329 105.7 83.2329 105.4C83.5329 105.1 83.6329 104.7 83.6329 104.2C83.6329 104.1 83.0329 96.5 83.0329 93.6V92.8C83.0329 90.6 83.0329 89.8 86.2329 86.8C90.0329 83.1 95.1329 77.6 97.2329 75.1C97.4329 74.9 97.5329 74.7 97.7329 74.5C99.5329 72.5 101.333 70.5 101.133 63.8ZM68.2329 102.7C68.2329 100.8 68.2329 99 68.1329 97.2C68.1329 96.7 68.1329 96.3 68.1329 95.8L80.0329 96.8C80.1329 98.9 80.3329 101.4 80.4329 103L68.2329 102.7ZM95.4329 72.7C95.2329 72.9 95.0329 73.1 94.9329 73.3C92.8329 75.8 87.8329 81.2 84.1329 84.8C80.3329 88.5 80.1329 90 80.0329 92.9V93.6V93.7L68.1329 92.7C68.0329 84.1 68.8329 77.6 74.7329 72.2C79.2329 68.2 80.9329 66.7 81.7329 66C82.5329 65.3 82.5329 65.3 83.7329 64.3C85.3329 63 86.3329 62.9 86.6329 63.1C86.6329 63.1 86.6329 63.2 86.7329 63.2C86.9329 63.5 86.9329 64.4 86.3329 65.6C84.3329 69.6 80.7329 75.4 80.7329 75.4C80.3329 76.1 80.5329 77 81.2329 77.5C81.9329 77.9 82.8329 77.7 83.3329 77C83.5329 76.8 87.0329 71 89.1329 66.9C90.0329 65 90.2329 63.2 89.5329 61.9C90.7329 54.1 93.7329 35.3 94.4329 32.9C94.7329 32 95.4329 32 95.6329 32C96.2329 32.1 97.0329 32.6 97.1329 33.9C97.4329 37.6 98.0329 56.7 98.2329 63.7C98.2329 69.4 97.0329 70.8 95.4329 72.7Z" fill="#EF8880"/>
<path d="M82.5327 36C82.5327 23.3 72.2327 13 59.5327 13C46.8327 13 36.5327 23.3 36.5327 36C36.5327 48.7 46.8327 59 59.5327 59C72.2327 59 82.5327 48.7 82.5327 36ZM59.5327 56C48.5327 56 39.5327 47 39.5327 36C39.5327 25 48.5327 16 59.5327 16C70.5327 16 79.5327 25 79.5327 36C79.5327 47 70.5327 56 59.5327 56Z" fill="#EF8880"/>
<path d="M52.2329 31.2001C53.0329 31.2001 53.7329 30.5001 53.7329 29.7001V27.8C53.7329 27 53.0329 26.3 52.2329 26.3C51.4329 26.3 50.7329 27 50.7329 27.8V29.7001C50.7329 30.5001 51.4329 31.2001 52.2329 31.2001Z" fill="#EF8880"/>
<path d="M66.833 31.2001C67.633 31.2001 68.333 30.5001 68.333 29.7001V27.8C68.333 27 67.633 26.3 66.833 26.3C66.033 26.3 65.333 27 65.333 27.8V29.7001C65.333 30.5001 66.033 31.2001 66.833 31.2001Z" fill="#EF8880"/>
<path d="M71.5328 37.1C70.7328 36.9 69.9328 37.4 69.7328 38.2C68.7328 42.9 64.4328 46.4 59.5328 46.4C54.6328 46.4 50.4328 43 49.3328 38.2C49.1328 37.4 48.3328 36.9 47.5328 37.1C46.7328 37.3 46.2328 38.1 46.4328 38.9C47.7328 45 53.2328 49.4 59.5328 49.4C65.8328 49.4 71.3328 45 72.6328 38.9C72.8328 38.1 72.3328 37.3 71.5328 37.1Z" fill="#EF8880"/>
</svg>
