<svg width="120" height="120" viewBox="0 0 120 120" fill="none" xmlns="http://www.w3.org/2000/svg">
<path d="M99.89 55.18C95.22 34.42 79.13 20 60.5 20C41.81 20 25.78 34.4 21.11 55.17C17.18 55.26 14 58.49 14 62.44V71.78C14 75.8 17.27 79.06 21.28 79.06C25.29 79.06 28.56 75.79 28.56 71.78V62.44C28.56 59.41 26.7 56.81 24.06 55.71C28.45 36.39 43.27 23 60.5 23C77.68 23 92.54 36.41 96.94 55.72C94.3 56.81 92.44 59.42 92.44 62.45V71.79C92.44 75.29 94.92 78.22 98.22 78.91V84.71H84.58C87.38 79.62 89.01 73.58 89.01 67.12C89.01 48.97 76.22 34.2 60.5 34.2C44.78 34.2 31.99 48.96 31.99 67.12C31.99 85.28 44.78 100.04 60.5 100.04C69.48 100.04 77.49 95.22 82.72 87.71H101.22V78.91C104.52 78.22 107 75.29 107 71.79V62.45C107 58.49 103.83 55.27 99.89 55.18ZM25.56 62.45V71.79C25.56 74.15 23.64 76.07 21.28 76.07C18.92 76.07 17 74.15 17 71.79V62.45C17 60.09 18.92 58.17 21.28 58.17C23.64 58.17 25.56 60.09 25.56 62.45ZM85.91 64.47C85.72 64.38 85.51 64.33 85.29 64.33C69.68 64.33 56.97 52.62 56.97 38.24C56.97 37.98 56.9 37.73 56.78 37.52C57.99 37.31 59.24 37.2 60.5 37.2C73.81 37.2 84.76 49.21 85.91 64.47ZM53.98 38.19C53.98 38.21 53.97 38.22 53.97 38.24C53.97 39.16 54.02 40.07 54.11 40.97C53.98 41.19 53.9 41.45 53.9 41.73C53.9 51.04 45.92 58.64 35.92 59.11C38.34 48.92 45.24 40.9 53.98 38.19ZM60.5 97.04C46.43 97.04 34.99 83.62 34.99 67.12C34.99 65.43 35.12 63.77 35.35 62.15C44.91 61.99 52.99 56.13 55.82 48.07C60.17 59.29 71.74 67.34 85.29 67.34C85.55 67.34 85.8 67.27 86.01 67.15C86.01 73.71 84.19 79.79 81.12 84.72H59.7C58.87 84.72 58.2 85.39 58.2 86.22C58.2 87.05 58.87 87.72 59.7 87.72H78.98C74.33 93.45 67.77 97.04 60.5 97.04ZM104 71.79C104 74.15 102.08 76.07 99.72 76.07C97.36 76.07 95.44 74.15 95.44 71.79V62.45C95.44 60.09 97.36 58.17 99.72 58.17C102.08 58.17 104 60.09 104 62.45V71.79Z" fill="#EF8880"/>
</svg>
