<svg width="16" height="16" viewBox="0 0 16 16" fill="none" xmlns="http://www.w3.org/2000/svg">
<g clip-path="url(#clip0)">
<path d="M0 2.44305C0 1.92824 0.180185 1.50353 0.540541 1.16892C0.900896 0.834297 1.36937 0.666992 1.94595 0.666992C2.51223 0.666992 2.97039 0.831718 3.32046 1.1612C3.68082 1.50097 3.861 1.94369 3.861 2.48938C3.861 2.98359 3.68598 3.39542 3.33591 3.7249C2.97555 4.06467 2.50193 4.23456 1.91506 4.23456H1.89961C1.33333 4.23456 0.875166 4.06467 0.525097 3.7249C0.175027 3.38514 0 2.95785 0 2.44305ZM0.200772 15.9566V5.63996H3.62934V15.9566H0.200772ZM5.52896 15.9566H8.95753V10.1959C8.95753 9.83557 8.99872 9.55758 9.08108 9.36196C9.22522 9.01189 9.44402 8.71588 9.73745 8.47393C10.0309 8.23197 10.399 8.111 10.8417 8.111C11.9949 8.111 12.5714 8.88834 12.5714 10.443V15.9566H16V10.0415C16 8.51769 15.6396 7.36197 14.9189 6.57432C14.1982 5.78668 13.2458 5.39286 12.0618 5.39286C10.7336 5.39286 9.69884 5.96428 8.95753 7.10714V7.13803H8.94208L8.95753 7.10714V5.63996H5.52896C5.54954 5.96943 5.55985 6.99387 5.55985 8.71332C5.55985 10.4327 5.54954 12.8471 5.52896 15.9566Z" fill="white"/>
</g>
<defs>
<clipPath id="clip0">
<rect width="16" height="15.2896" fill="white" transform="translate(0 0.666992)"/>
</clipPath>
</defs>
</svg>
