<svg width="32" height="32" viewBox="0 0 32 32" fill="none" xmlns="http://www.w3.org/2000/svg">
<rect width="32" height="32" rx="16" fill="#D9F2FE"/>
<path d="M16.0243 23.32C15.4643 23.32 14.9243 23.2467 14.4043 23.1C13.8976 22.9533 13.431 22.7333 13.0043 22.44C12.5776 22.1333 12.1976 21.7533 11.8643 21.3C11.5443 20.8467 11.2976 20.32 11.1243 19.72L13.5843 18.74C13.7576 19.4067 14.051 19.9133 14.4643 20.26C14.8776 20.5933 15.3976 20.76 16.0243 20.76C16.3043 20.76 16.571 20.72 16.8243 20.64C17.0776 20.5467 17.2976 20.42 17.4843 20.26C17.671 20.1 17.8176 19.9133 17.9243 19.7C18.0443 19.4733 18.1043 19.22 18.1043 18.94C18.1043 18.3533 17.8843 17.8933 17.4443 17.56C17.0176 17.2267 16.4243 17.06 15.6643 17.06H14.4843V14.68H15.5643C15.831 14.68 16.091 14.6467 16.3443 14.58C16.5976 14.5133 16.8176 14.4133 17.0043 14.28C17.2043 14.1333 17.3576 13.9533 17.4643 13.74C17.5843 13.5133 17.6443 13.2533 17.6443 12.96C17.6443 12.5067 17.4843 12.14 17.1643 11.86C16.8443 11.5667 16.411 11.42 15.8643 11.42C15.2776 11.42 14.8243 11.58 14.5043 11.9C14.1976 12.2067 13.9843 12.5533 13.8643 12.94L11.4643 11.96C11.5843 11.6267 11.7643 11.2867 12.0043 10.94C12.2443 10.58 12.5443 10.26 12.9043 9.98C13.2776 9.68667 13.711 9.45333 14.2043 9.28C14.6976 9.09333 15.2643 9 15.9043 9C16.5576 9 17.151 9.09333 17.6843 9.28C18.231 9.46667 18.6976 9.72667 19.0843 10.06C19.471 10.38 19.771 10.7667 19.9843 11.22C20.1976 11.66 20.3043 12.14 20.3043 12.66C20.3043 13.06 20.251 13.42 20.1443 13.74C20.051 14.06 19.9243 14.3467 19.7643 14.6C19.6043 14.8533 19.4176 15.0733 19.2043 15.26C19.0043 15.4333 18.7976 15.5733 18.5843 15.68V15.84C19.2243 16.0933 19.751 16.5 20.1643 17.06C20.591 17.62 20.8043 18.3267 20.8043 19.18C20.8043 19.78 20.691 20.3333 20.4643 20.84C20.2376 21.3333 19.911 21.7667 19.4843 22.14C19.071 22.5133 18.571 22.8 17.9843 23C17.3976 23.2133 16.7443 23.32 16.0243 23.32Z" fill="#020202"/>
</svg>
