<svg width="56" height="56" viewBox="0 0 56 56" fill="none" xmlns="http://www.w3.org/2000/svg">
<circle cx="28" cy="28" r="28" fill="#16C17F"/>
<path d="M21.6591 38V34.668C22.7604 33.5853 23.7778 32.5773 24.7111 31.644C25.1031 31.252 25.5044 30.8507 25.9151 30.44C26.3258 30.0293 26.7084 29.6467 27.0631 29.292C27.4178 28.9373 27.7351 28.62 28.0151 28.34C28.2951 28.0413 28.5098 27.808 28.6591 27.64C28.9578 27.2853 29.2191 26.968 29.4431 26.688C29.6858 26.408 29.8724 26.1373 30.0031 25.876C30.1524 25.596 30.2644 25.3253 30.3391 25.064C30.4138 24.784 30.4511 24.4853 30.4511 24.168C30.4511 23.552 30.2084 23.02 29.7231 22.572C29.2378 22.1053 28.5751 21.872 27.7351 21.872C26.8951 21.872 26.2418 22.1147 25.7751 22.6C25.3084 23.0667 24.9911 23.5987 24.8231 24.196L21.4911 22.824C21.6404 22.32 21.8831 21.8067 22.2191 21.284C22.5551 20.7427 22.9844 20.2667 23.5071 19.856C24.0298 19.4267 24.6458 19.0813 25.3551 18.82C26.0831 18.54 26.8951 18.4 27.7911 18.4C28.7618 18.4 29.6391 18.5493 30.4231 18.848C31.2071 19.128 31.8698 19.52 32.4111 20.024C32.9524 20.528 33.3724 21.1253 33.6711 21.816C33.9698 22.488 34.1191 23.216 34.1191 24C34.1191 25.1947 33.8204 26.296 33.2231 27.304C32.6444 28.2933 31.9351 29.2173 31.0951 30.076L28.6871 32.484C28.0524 33.1187 27.3338 33.828 26.5311 34.612L26.6431 34.78H34.3991V38H21.6591Z" fill="white"/>
</svg>
