<svg width="32" height="32" viewBox="0 0 32 32" fill="none" xmlns="http://www.w3.org/2000/svg">
<rect width="32" height="32" rx="16" fill="#D9F2FE"/>
<path d="M15.2364 18.1C14.7164 18.1 14.2097 17.9933 13.7164 17.78C13.2231 17.5667 12.7831 17.2667 12.3964 16.88C12.0097 16.48 11.6964 16.0133 11.4564 15.48C11.2297 14.9333 11.1164 14.3333 11.1164 13.68C11.1164 13 11.2497 12.3733 11.5164 11.8C11.7831 11.2133 12.1364 10.7133 12.5764 10.3C13.0297 9.88667 13.5431 9.56667 14.1164 9.34C14.7031 9.1 15.3164 8.98 15.9564 8.98C16.6897 8.98 17.3564 9.11333 17.9564 9.38C18.5697 9.63333 19.0897 9.98 19.5164 10.42C19.9564 10.8467 20.2897 11.3533 20.5164 11.94C20.7564 12.5133 20.8764 13.12 20.8764 13.76C20.8764 14.68 20.6897 15.5267 20.3164 16.3C19.9564 17.06 19.4964 17.84 18.9364 18.64L15.6164 23.38L13.5964 22L16.3964 18.02L16.2964 17.9C15.9897 18.0333 15.6364 18.1 15.2364 18.1ZM15.9964 11.4C15.6897 11.4 15.3964 11.4533 15.1164 11.56C14.8497 11.6667 14.6097 11.82 14.3964 12.02C14.1831 12.22 14.0097 12.46 13.8764 12.74C13.7564 13.0067 13.6964 13.3067 13.6964 13.64C13.6964 13.9867 13.7564 14.3 13.8764 14.58C14.0097 14.8467 14.1831 15.08 14.3964 15.28C14.6097 15.48 14.8497 15.6333 15.1164 15.74C15.3964 15.8467 15.6897 15.9 15.9964 15.9C16.2897 15.9 16.5764 15.8467 16.8564 15.74C17.1364 15.6333 17.3831 15.48 17.5964 15.28C17.8231 15.08 17.9964 14.8467 18.1164 14.58C18.2497 14.3 18.3164 13.9867 18.3164 13.64C18.3164 13.3067 18.2497 13.0067 18.1164 12.74C17.9964 12.46 17.8231 12.22 17.5964 12.02C17.3831 11.82 17.1364 11.6667 16.8564 11.56C16.5764 11.4533 16.2897 11.4 15.9964 11.4Z" fill="#020202"/>
</svg>
