<svg width="32" height="32" viewBox="0 0 32 32" fill="none" xmlns="http://www.w3.org/2000/svg">
<rect width="32" height="32" rx="16" fill="#D9F2FE"/>
<path d="M15.9178 23.32C15.3978 23.32 14.8778 23.2467 14.3578 23.1C13.8511 22.9533 13.3778 22.7267 12.9378 22.42C12.4978 22.1133 12.1111 21.7333 11.7778 21.28C11.4578 20.8133 11.2178 20.26 11.0578 19.62L13.4378 18.7C13.5845 19.3667 13.8645 19.9 14.2778 20.3C14.7045 20.7 15.2445 20.9 15.8978 20.9C16.2178 20.9 16.5111 20.8467 16.7778 20.74C17.0578 20.62 17.2978 20.46 17.4978 20.26C17.7111 20.06 17.8711 19.8267 17.9778 19.56C18.0978 19.28 18.1578 18.9733 18.1578 18.64C18.1578 18.32 18.0978 18.0267 17.9778 17.76C17.8711 17.48 17.7178 17.24 17.5178 17.04C17.3178 16.8267 17.0778 16.6667 16.7978 16.56C16.5311 16.44 16.2311 16.38 15.8978 16.38C15.4845 16.38 15.1178 16.4733 14.7978 16.66C14.4778 16.8333 14.2045 17.0533 13.9778 17.32L11.4378 16.16L12.2378 9.32H19.9378V11.62H14.4178L13.8978 14.82L14.0578 14.86C14.3245 14.6333 14.6511 14.44 15.0378 14.28C15.4245 14.12 15.8911 14.04 16.4378 14.04C17.0111 14.04 17.5578 14.1533 18.0778 14.38C18.5978 14.5933 19.0578 14.9 19.4578 15.3C19.8578 15.7 20.1778 16.1867 20.4178 16.76C20.6578 17.32 20.7778 17.9467 20.7778 18.64C20.7778 19.32 20.6578 19.9467 20.4178 20.52C20.1778 21.0933 19.8378 21.5867 19.3978 22C18.9711 22.4133 18.4578 22.74 17.8578 22.98C17.2711 23.2067 16.6245 23.32 15.9178 23.32Z" fill="#020202"/>
</svg>
