<svg width="32" height="32" viewBox="0 0 32 32" fill="none" xmlns="http://www.w3.org/2000/svg">
<rect width="32" height="32" rx="16" fill="#D9F2FE"/>
<path d="M9.32063 23V12.4L6.90063 13.42L5.94063 11.2L9.96063 9.32H11.9406V23H9.32063ZM20.2372 23.32C19.3572 23.32 18.5639 23.14 17.8572 22.78C17.1505 22.4067 16.5439 21.9 16.0372 21.26C15.5439 20.62 15.1639 19.8667 14.8972 19C14.6305 18.12 14.4972 17.1733 14.4972 16.16C14.4972 15.1467 14.6305 14.2067 14.8972 13.34C15.1639 12.46 15.5439 11.7 16.0372 11.06C16.5439 10.42 17.1505 9.92 17.8572 9.56C18.5639 9.18667 19.3572 9 20.2372 9C21.1172 9 21.9105 9.18667 22.6172 9.56C23.3239 9.92 23.9239 10.42 24.4172 11.06C24.9239 11.7 25.3105 12.46 25.5772 13.34C25.8439 14.2067 25.9772 15.1467 25.9772 16.16C25.9772 17.1733 25.8439 18.12 25.5772 19C25.3105 19.8667 24.9239 20.62 24.4172 21.26C23.9239 21.9 23.3239 22.4067 22.6172 22.78C21.9105 23.14 21.1172 23.32 20.2372 23.32ZM20.2372 20.84C20.7172 20.84 21.1505 20.7267 21.5372 20.5C21.9239 20.26 22.2505 19.9333 22.5172 19.52C22.7972 19.0933 23.0039 18.5933 23.1372 18.02C23.2839 17.4467 23.3572 16.8267 23.3572 16.16C23.3572 15.48 23.2839 14.86 23.1372 14.3C23.0039 13.7267 22.7972 13.2333 22.5172 12.82C22.2505 12.3933 21.9239 12.0667 21.5372 11.84C21.1505 11.6 20.7172 11.48 20.2372 11.48C19.7439 11.48 19.3039 11.6 18.9172 11.84C18.5305 12.0667 18.2039 12.3933 17.9372 12.82C17.6705 13.2333 17.4639 13.7267 17.3172 14.3C17.1839 14.86 17.1172 15.48 17.1172 16.16C17.1172 16.8267 17.1839 17.4467 17.3172 18.02C17.4639 18.5933 17.6705 19.0933 17.9372 19.52C18.2039 19.9333 18.5305 20.26 18.9172 20.5C19.3039 20.7267 19.7439 20.84 20.2372 20.84Z" fill="#020202"/>
</svg>
