<svg width="32" height="32" viewBox="0 0 32 32" fill="none" xmlns="http://www.w3.org/2000/svg">
<rect width="32" height="32" rx="16" fill="#D9F2FE"/>
<path d="M10.3948 23V12.4L7.97484 13.42L7.01484 11.2L11.0348 9.32H13.0148V23H10.3948ZM15.8067 23V20.62C16.5934 19.8467 17.3201 19.1267 17.9867 18.46C18.2667 18.18 18.5534 17.8933 18.8467 17.6C19.1401 17.3067 19.4134 17.0333 19.6667 16.78C19.9201 16.5267 20.1467 16.3 20.3467 16.1C20.5467 15.8867 20.7001 15.72 20.8067 15.6C21.0201 15.3467 21.2067 15.12 21.3667 14.92C21.5401 14.72 21.6734 14.5267 21.7667 14.34C21.8734 14.14 21.9534 13.9467 22.0067 13.76C22.0601 13.56 22.0867 13.3467 22.0867 13.12C22.0867 12.68 21.9134 12.3 21.5667 11.98C21.2201 11.6467 20.7467 11.48 20.1467 11.48C19.5467 11.48 19.0801 11.6533 18.7467 12C18.4134 12.3333 18.1867 12.7133 18.0667 13.14L15.6867 12.16C15.7934 11.8 15.9667 11.4333 16.2067 11.06C16.4467 10.6733 16.7534 10.3333 17.1267 10.04C17.5001 9.73333 17.9401 9.48667 18.4467 9.3C18.9667 9.1 19.5467 9 20.1867 9C20.8801 9 21.5067 9.10667 22.0667 9.32C22.6267 9.52 23.1001 9.8 23.4867 10.16C23.8734 10.52 24.1734 10.9467 24.3867 11.44C24.6001 11.92 24.7067 12.44 24.7067 13C24.7067 13.8533 24.4934 14.64 24.0667 15.36C23.6534 16.0667 23.1467 16.7267 22.5467 17.34L20.8267 19.06C20.3734 19.5133 19.8601 20.02 19.2867 20.58L19.3667 20.7H24.9067V23H15.8067Z" fill="#020202"/>
</svg>
