<svg width="56" height="56" viewBox="0 0 56 56" fill="none" xmlns="http://www.w3.org/2000/svg">
<circle cx="28" cy="28" r="28" fill="#16C17F"/>
<path d="M28.034 38.448C27.25 38.448 26.494 38.3453 25.766 38.14C25.0567 37.9347 24.4033 37.6267 23.806 37.216C23.2087 36.7867 22.6767 36.2547 22.21 35.62C21.762 34.9853 21.4167 34.248 21.174 33.408L24.618 32.036C24.8607 32.9693 25.2713 33.6787 25.85 34.164C26.4287 34.6307 27.1567 34.864 28.034 34.864C28.426 34.864 28.7993 34.808 29.154 34.696C29.5087 34.5653 29.8167 34.388 30.078 34.164C30.3393 33.94 30.5447 33.6787 30.694 33.38C30.862 33.0627 30.946 32.708 30.946 32.316C30.946 31.4947 30.638 30.8507 30.022 30.384C29.4247 29.9173 28.594 29.684 27.53 29.684H25.878V26.352H27.39C27.7633 26.352 28.1273 26.3053 28.482 26.212C28.8367 26.1187 29.1447 25.9787 29.406 25.792C29.686 25.5867 29.9007 25.3347 30.05 25.036C30.218 24.7187 30.302 24.3547 30.302 23.944C30.302 23.3093 30.078 22.796 29.63 22.404C29.182 21.9933 28.5753 21.788 27.81 21.788C26.9887 21.788 26.354 22.012 25.906 22.46C25.4767 22.8893 25.178 23.3747 25.01 23.916L21.65 22.544C21.818 22.0773 22.07 21.6013 22.406 21.116C22.742 20.612 23.162 20.164 23.666 19.772C24.1887 19.3613 24.7953 19.0347 25.486 18.792C26.1767 18.5307 26.97 18.4 27.866 18.4C28.7807 18.4 29.6113 18.5307 30.358 18.792C31.1233 19.0533 31.7767 19.4173 32.318 19.884C32.8593 20.332 33.2793 20.8733 33.578 21.508C33.8767 22.124 34.026 22.796 34.026 23.524C34.026 24.084 33.9513 24.588 33.802 25.036C33.6713 25.484 33.494 25.8853 33.27 26.24C33.046 26.5947 32.7847 26.9027 32.486 27.164C32.206 27.4067 31.9167 27.6027 31.618 27.752V27.976C32.514 28.3307 33.2513 28.9 33.83 29.684C34.4274 30.468 34.726 31.4573 34.726 32.652C34.726 33.492 34.5673 34.2667 34.25 34.976C33.9327 35.6667 33.4753 36.2733 32.878 36.796C32.2993 37.3187 31.5993 37.72 30.778 38C29.9567 38.2987 29.042 38.448 28.034 38.448Z" fill="white"/>
</svg>
