<svg width="32" height="32" viewBox="0 0 32 32" fill="none" xmlns="http://www.w3.org/2000/svg">
<rect width="32" height="32" rx="16" fill="#D9F2FE"/>
<path d="M16.7564 14.2C17.2764 14.2 17.7831 14.3133 18.2764 14.54C18.7697 14.7533 19.2097 15.0533 19.5964 15.44C19.9831 15.8267 20.2897 16.2933 20.5164 16.84C20.7564 17.3867 20.8764 17.9867 20.8764 18.64C20.8764 19.32 20.7431 19.9467 20.4764 20.52C20.2097 21.0933 19.8497 21.5867 19.3964 22C18.9564 22.4133 18.4431 22.74 17.8564 22.98C17.2831 23.2067 16.6764 23.32 16.0364 23.32C15.2897 23.32 14.6164 23.1933 14.0164 22.94C13.4164 22.6733 12.8964 22.3267 12.4564 21.9C12.0297 21.46 11.6964 20.9533 11.4564 20.38C11.2297 19.7933 11.1164 19.18 11.1164 18.54C11.1164 17.62 11.2964 16.78 11.6564 16.02C12.0297 15.2467 12.4964 14.46 13.0564 13.66L16.3764 8.92L18.3964 10.32L15.5964 14.28L15.6964 14.4C16.0031 14.2667 16.3564 14.2 16.7564 14.2ZM15.9964 20.9C16.2897 20.9 16.5764 20.8467 16.8564 20.74C17.1364 20.6333 17.3831 20.48 17.5964 20.28C17.8097 20.08 17.9764 19.8467 18.0964 19.58C18.2297 19.3 18.2964 18.9933 18.2964 18.66C18.2964 18.3267 18.2297 18.02 18.0964 17.74C17.9764 17.46 17.8097 17.22 17.5964 17.02C17.3831 16.82 17.1364 16.6667 16.8564 16.56C16.5764 16.4533 16.2897 16.4 15.9964 16.4C15.6897 16.4 15.3964 16.4533 15.1164 16.56C14.8497 16.6667 14.6031 16.82 14.3764 17.02C14.1631 17.22 13.9897 17.46 13.8564 17.74C13.7364 18.02 13.6764 18.3267 13.6764 18.66C13.6764 18.9933 13.7364 19.3 13.8564 19.58C13.9897 19.8467 14.1631 20.08 14.3764 20.28C14.6031 20.48 14.8497 20.6333 15.1164 20.74C15.3964 20.8467 15.6897 20.9 15.9964 20.9Z" fill="#020202"/>
</svg>
