<svg width="32" height="32" viewBox="0 0 32 32" fill="none" xmlns="http://www.w3.org/2000/svg">
<rect width="32" height="32" rx="16" fill="#D9F2FE"/>
<path d="M15.9983 23.32C15.2649 23.32 14.5916 23.2133 13.9783 23C13.3783 22.7867 12.8583 22.5 12.4183 22.14C11.9783 21.7667 11.6383 21.3333 11.3983 20.84C11.1583 20.3333 11.0383 19.7867 11.0383 19.2C11.0383 18.8 11.0916 18.4267 11.1983 18.08C11.3183 17.7333 11.4716 17.42 11.6583 17.14C11.8583 16.86 12.0849 16.6133 12.3383 16.4C12.5916 16.1867 12.8583 16.0067 13.1383 15.86V15.7C12.6983 15.4067 12.3116 15.02 11.9783 14.54C11.6583 14.06 11.4983 13.5 11.4983 12.86C11.4983 12.3133 11.6116 11.8067 11.8383 11.34C12.0649 10.86 12.3783 10.4467 12.7783 10.1C13.1783 9.75333 13.6516 9.48667 14.1983 9.3C14.7449 9.1 15.3449 9 15.9983 9C16.6516 9 17.2516 9.1 17.7983 9.3C18.3449 9.48667 18.8183 9.75333 19.2183 10.1C19.6183 10.4467 19.9316 10.86 20.1583 11.34C20.3849 11.8067 20.4983 12.3133 20.4983 12.86C20.4983 13.5 20.3316 14.06 19.9983 14.54C19.6783 15.02 19.2983 15.4067 18.8583 15.7V15.86C19.1383 16.0067 19.4049 16.1867 19.6583 16.4C19.9116 16.6133 20.1316 16.86 20.3183 17.14C20.5183 17.42 20.6716 17.7333 20.7783 18.08C20.8983 18.4267 20.9583 18.8 20.9583 19.2C20.9583 19.7867 20.8383 20.3333 20.5983 20.84C20.3583 21.3333 20.0183 21.7667 19.5783 22.14C19.1383 22.5 18.6116 22.7867 17.9983 23C17.3983 23.2133 16.7316 23.32 15.9983 23.32ZM15.9983 14.72C16.5583 14.72 17.0249 14.5667 17.3983 14.26C17.7716 13.94 17.9583 13.5267 17.9583 13.02C17.9583 12.5 17.7716 12.0933 17.3983 11.8C17.0249 11.4933 16.5583 11.34 15.9983 11.34C15.4383 11.34 14.9716 11.4933 14.5983 11.8C14.2249 12.0933 14.0383 12.5 14.0383 13.02C14.0383 13.5267 14.2249 13.94 14.5983 14.26C14.9716 14.5667 15.4383 14.72 15.9983 14.72ZM15.9983 20.9C16.6783 20.9 17.2383 20.7267 17.6783 20.38C18.1183 20.02 18.3383 19.54 18.3383 18.94C18.3383 18.66 18.2783 18.4067 18.1583 18.18C18.0383 17.94 17.8716 17.7333 17.6583 17.56C17.4583 17.3867 17.2116 17.2533 16.9183 17.16C16.6383 17.0667 16.3316 17.02 15.9983 17.02C15.6649 17.02 15.3516 17.0667 15.0583 17.16C14.7783 17.2533 14.5316 17.3867 14.3183 17.56C14.1183 17.7333 13.9583 17.94 13.8383 18.18C13.7183 18.4067 13.6583 18.66 13.6583 18.94C13.6583 19.54 13.8783 20.02 14.3183 20.38C14.7583 20.7267 15.3183 20.9 15.9983 20.9Z" fill="#020202"/>
</svg>
