<svg width="32" height="32" viewBox="0 0 32 32" fill="none" xmlns="http://www.w3.org/2000/svg">
<rect width="32" height="32" rx="16" fill="#D9F2FE"/>
<path d="M11.4708 23V20.62C12.2574 19.8467 12.9841 19.1267 13.6508 18.46C13.9308 18.18 14.2174 17.8933 14.5108 17.6C14.8041 17.3067 15.0774 17.0333 15.3308 16.78C15.5841 16.5267 15.8108 16.3 16.0108 16.1C16.2108 15.8867 16.3641 15.72 16.4708 15.6C16.6841 15.3467 16.8708 15.12 17.0308 14.92C17.2041 14.72 17.3374 14.5267 17.4308 14.34C17.5374 14.14 17.6174 13.9467 17.6708 13.76C17.7241 13.56 17.7508 13.3467 17.7508 13.12C17.7508 12.68 17.5774 12.3 17.2308 11.98C16.8841 11.6467 16.4108 11.48 15.8108 11.48C15.2108 11.48 14.7441 11.6533 14.4108 12C14.0774 12.3333 13.8508 12.7133 13.7308 13.14L11.3508 12.16C11.4574 11.8 11.6308 11.4333 11.8708 11.06C12.1108 10.6733 12.4174 10.3333 12.7908 10.04C13.1641 9.73333 13.6041 9.48667 14.1108 9.3C14.6308 9.1 15.2108 9 15.8508 9C16.5441 9 17.1708 9.10667 17.7308 9.32C18.2908 9.52 18.7641 9.8 19.1508 10.16C19.5374 10.52 19.8374 10.9467 20.0508 11.44C20.2641 11.92 20.3708 12.44 20.3708 13C20.3708 13.8533 20.1574 14.64 19.7308 15.36C19.3174 16.0667 18.8108 16.7267 18.2108 17.34L16.4908 19.06C16.0374 19.5133 15.5241 20.02 14.9508 20.58L15.0308 20.7H20.5708V23H11.4708Z" fill="#020202"/>
</svg>
