<svg width="56" height="56" viewBox="0 0 56 56" fill="none" xmlns="http://www.w3.org/2000/svg">
<circle cx="28" cy="28" r="28" fill="#16C17F"/>
<path d="M27.8849 38.448C27.1569 38.448 26.4289 38.3453 25.7009 38.14C24.9916 37.9347 24.3289 37.6173 23.7129 37.188C23.0969 36.7587 22.5556 36.2267 22.0889 35.592C21.6409 34.9387 21.3049 34.164 21.0809 33.268L24.4129 31.98C24.6183 32.9133 25.0103 33.66 25.5889 34.22C26.1863 34.78 26.9423 35.06 27.8569 35.06C28.3049 35.06 28.7156 34.9853 29.0889 34.836C29.4809 34.668 29.8169 34.444 30.0969 34.164C30.3956 33.884 30.6196 33.5573 30.7689 33.184C30.9369 32.792 31.0209 32.3627 31.0209 31.896C31.0209 31.448 30.9369 31.0373 30.7689 30.664C30.6196 30.272 30.4049 29.936 30.1249 29.656C29.8449 29.3573 29.5089 29.1333 29.1169 28.984C28.7436 28.816 28.3236 28.732 27.8569 28.732C27.2783 28.732 26.7649 28.8627 26.3169 29.124C25.8689 29.3667 25.4863 29.6747 25.1689 30.048L21.6129 28.424L22.7329 18.848H33.5129V22.068H25.7849L25.0569 26.548L25.2809 26.604C25.6543 26.2867 26.1116 26.016 26.6529 25.792C27.1943 25.568 27.8476 25.456 28.6129 25.456C29.4156 25.456 30.1809 25.6147 30.9089 25.932C31.6369 26.2307 32.2809 26.66 32.8409 27.22C33.4009 27.78 33.8489 28.4613 34.1849 29.264C34.5209 30.048 34.6889 30.9253 34.6889 31.896C34.6889 32.848 34.5209 33.7253 34.1849 34.528C33.8489 35.3307 33.3729 36.0213 32.7569 36.6C32.1596 37.1787 31.4409 37.636 30.6009 37.972C29.7796 38.2893 28.8743 38.448 27.8849 38.448Z" fill="white"/>
</svg>
