<svg width="220" height="88" viewBox="0 0 220 88" fill="none" xmlns="http://www.w3.org/2000/svg">
<path opacity="0.24" d="M0 0.999999C0 0.447714 0.447715 0 1 0H219C219.552 0 220 0.447715 220 1V86.0362C220 86.8535 219.073 87.3257 218.412 86.845L206.838 78.4278C206.488 78.1727 206.012 78.1727 205.662 78.4278L193.088 87.5722C192.738 87.8273 192.262 87.8273 191.912 87.5722L179.338 78.4278C178.988 78.1727 178.512 78.1727 178.162 78.4278L165.588 87.5722C165.238 87.8273 164.762 87.8273 164.412 87.5722L151.838 78.4278C151.488 78.1727 151.012 78.1727 150.662 78.4278L138.088 87.5722C137.738 87.8273 137.262 87.8273 136.912 87.5722L124.338 78.4278C123.988 78.1727 123.512 78.1727 123.162 78.4278L110.588 87.5722C110.238 87.8273 109.762 87.8273 109.412 87.5722L96.8382 78.4278C96.4875 78.1727 96.0125 78.1727 95.6618 78.4278L83.0882 87.5722C82.7375 87.8273 82.2625 87.8273 81.9118 87.5722L69.3382 78.4278C68.9875 78.1727 68.5125 78.1727 68.1618 78.4278L55.5882 87.5722C55.2375 87.8273 54.7625 87.8273 54.4118 87.5722L41.8382 78.4278C41.4875 78.1727 41.0125 78.1727 40.6618 78.4278L28.0882 87.5722C27.7375 87.8273 27.2625 87.8273 26.9118 87.5722L14.3382 78.4278C13.9875 78.1727 13.5125 78.1727 13.1618 78.4278L1.58817 86.845C0.927203 87.3257 0 86.8535 0 86.0362V0.999999Z" fill="#FBFBFD"/>
<path d="M31.7116 54V30.68L26.3876 32.924L24.2756 28.04L33.1196 23.904H37.4756V54H31.7116ZM54.0458 54.704C52.9018 54.704 51.7578 54.5427 50.6138 54.22C49.4991 53.8973 48.4578 53.3987 47.4898 52.724C46.5218 52.0493 45.6711 51.2133 44.9378 50.216C44.2338 49.1893 43.7058 47.972 43.3538 46.564L48.5898 44.54C48.9124 46.0067 49.5284 47.18 50.4378 48.06C51.3764 48.94 52.5644 49.38 54.0018 49.38C54.7058 49.38 55.3511 49.2627 55.9378 49.028C56.5538 48.764 57.0818 48.412 57.5218 47.972C57.9911 47.532 58.3431 47.0187 58.5778 46.432C58.8418 45.816 58.9738 45.1413 58.9738 44.408C58.9738 43.704 58.8418 43.0587 58.5778 42.472C58.3431 41.856 58.0058 41.328 57.5658 40.888C57.1258 40.4187 56.5978 40.0667 55.9818 39.832C55.3951 39.568 54.7351 39.436 54.0018 39.436C53.0924 39.436 52.2858 39.6413 51.5818 40.052C50.8778 40.4333 50.2764 40.9173 49.7778 41.504L44.1898 38.952L45.9498 23.904H62.8898V28.964H50.7458L49.6018 36.004L49.9538 36.092C50.5404 35.5933 51.2591 35.168 52.1098 34.816C52.9604 34.464 53.9871 34.288 55.1898 34.288C56.4511 34.288 57.6538 34.5373 58.7978 35.036C59.9418 35.5053 60.9538 36.18 61.8338 37.06C62.7138 37.94 63.4178 39.0107 63.9458 40.272C64.4738 41.504 64.7378 42.8827 64.7378 44.408C64.7378 45.904 64.4738 47.2827 63.9458 48.544C63.4178 49.8053 62.6698 50.8907 61.7018 51.8C60.7631 52.7093 59.6338 53.428 58.3138 53.956C57.0231 54.4547 55.6004 54.704 54.0458 54.704ZM67.8377 30.724C67.8377 29.6973 68.0284 28.7293 68.4097 27.82C68.8204 26.9107 69.363 26.1187 70.0377 25.444C70.7417 24.74 71.563 24.1973 72.5017 23.816C73.4404 23.4053 74.467 23.2 75.5817 23.2C76.6964 23.2 77.723 23.4053 78.6617 23.816C79.6297 24.1973 80.451 24.74 81.1257 25.444C81.8297 26.1187 82.3724 26.9107 82.7537 27.82C83.1644 28.7293 83.3697 29.6973 83.3697 30.724C83.3697 31.7507 83.1644 32.7333 82.7537 33.672C82.3724 34.5813 81.8297 35.3733 81.1257 36.048C80.451 36.7227 79.6297 37.2653 78.6617 37.676C77.723 38.0573 76.6964 38.248 75.5817 38.248C74.467 38.248 73.4404 38.0573 72.5017 37.676C71.563 37.2653 70.7417 36.7227 70.0377 36.048C69.363 35.3733 68.8204 34.5813 68.4097 33.672C68.0284 32.7333 67.8377 31.7507 67.8377 30.724ZM72.5457 30.724C72.5457 31.692 72.839 32.4693 73.4257 33.056C74.0124 33.6427 74.731 33.936 75.5817 33.936C76.4324 33.936 77.151 33.6427 77.7377 33.056C78.3244 32.4693 78.6177 31.692 78.6177 30.724C78.6177 29.756 78.3244 28.9787 77.7377 28.392C77.151 27.8053 76.4324 27.512 75.5817 27.512C74.731 27.512 74.0124 27.8053 73.4257 28.392C72.839 28.9787 72.5457 29.756 72.5457 30.724ZM73.4257 52.372L92.9617 23.2L96.4377 25.532L76.9017 54.704L73.4257 52.372ZM86.4937 47.18C86.4937 46.1533 86.6844 45.1853 87.0657 44.276C87.4764 43.3667 88.019 42.5747 88.6937 41.9C89.3977 41.196 90.219 40.6533 91.1577 40.272C92.0964 39.8613 93.123 39.656 94.2377 39.656C95.3524 39.656 96.379 39.8613 97.3177 40.272C98.2857 40.6533 99.107 41.196 99.7817 41.9C100.486 42.5747 101.028 43.3667 101.41 44.276C101.82 45.1853 102.026 46.1533 102.026 47.18C102.026 48.2067 101.82 49.1893 101.41 50.128C101.028 51.0373 100.486 51.8293 99.7817 52.504C99.107 53.1787 98.2857 53.7067 97.3177 54.088C96.379 54.4987 95.3524 54.704 94.2377 54.704C93.123 54.704 92.0964 54.4987 91.1577 54.088C90.219 53.7067 89.3977 53.1787 88.6937 52.504C88.019 51.8293 87.4764 51.0373 87.0657 50.128C86.6844 49.1893 86.4937 48.2067 86.4937 47.18ZM91.2017 47.18C91.2017 48.148 91.495 48.9253 92.0817 49.512C92.6684 50.0987 93.387 50.392 94.2377 50.392C95.0884 50.392 95.807 50.0987 96.3937 49.512C96.9804 48.9253 97.2737 48.148 97.2737 47.18C97.2737 46.212 96.9804 45.4347 96.3937 44.848C95.807 44.2613 95.0884 43.968 94.2377 43.968C93.387 43.968 92.6684 44.2613 92.0817 44.848C91.495 45.4347 91.2017 46.212 91.2017 47.18ZM130.318 54.704C127.972 54.704 125.786 54.2787 123.762 53.428C121.768 52.5773 120.037 51.4187 118.57 49.952C117.104 48.456 115.945 46.7107 115.094 44.716C114.273 42.692 113.862 40.536 113.862 38.248C113.862 35.96 114.273 33.8187 115.094 31.824C115.945 29.8 117.104 28.0547 118.57 26.588C120.037 25.092 121.768 23.9187 123.762 23.068C125.786 22.2173 127.972 21.792 130.318 21.792C132.665 21.792 134.836 22.2173 136.83 23.068C138.854 23.9187 140.6 25.092 142.066 26.588C143.533 28.0547 144.677 29.8 145.498 31.824C146.349 33.8187 146.774 35.96 146.774 38.248C146.774 40.536 146.349 42.692 145.498 44.716C144.677 46.7107 143.533 48.456 142.066 49.952C140.6 51.4187 138.854 52.5773 136.83 53.428C134.836 54.2787 132.665 54.704 130.318 54.704ZM130.318 49.072C131.785 49.072 133.149 48.808 134.41 48.28C135.701 47.752 136.816 47.0187 137.754 46.08C138.722 45.1413 139.47 44.012 139.998 42.692C140.556 41.3427 140.834 39.8613 140.834 38.248C140.834 36.6347 140.556 35.168 139.998 33.848C139.47 32.4987 138.722 31.3547 137.754 30.416C136.816 29.4773 135.701 28.744 134.41 28.216C133.149 27.688 131.785 27.424 130.318 27.424C128.852 27.424 127.473 27.688 126.182 28.216C124.921 28.744 123.806 29.4773 122.838 30.416C121.9 31.3547 121.152 32.4987 120.594 33.848C120.066 35.168 119.802 36.6347 119.802 38.248C119.802 39.8613 120.066 41.3427 120.594 42.692C121.152 44.012 121.9 45.1413 122.838 46.08C123.806 47.0187 124.921 47.752 126.182 48.28C127.473 48.808 128.852 49.072 130.318 49.072ZM151.582 22.496H171.558V28.128H157.522V35.784H170.15V41.416H157.522V54H151.582V22.496ZM176.117 22.496H196.093V28.128H182.057V35.784H194.685V41.416H182.057V54H176.117V22.496Z" fill="white"/>
</svg>
