<svg width="264" height="264" viewBox="0 0 264 264" fill="none" xmlns="http://www.w3.org/2000/svg">
<rect width="12" height="12" rx="4" fill="url(#paint0_linear)"/>
<rect y="144" width="12" height="12" rx="4" fill="url(#paint1_linear)"/>
<rect y="72" width="12" height="12" rx="4" fill="url(#paint2_linear)"/>
<rect y="216" width="12" height="12" rx="4" fill="url(#paint3_linear)"/>
<rect y="36" width="12" height="12" rx="4" fill="url(#paint4_linear)"/>
<rect y="180" width="12" height="12" rx="4" fill="url(#paint5_linear)"/>
<rect y="108" width="12" height="12" rx="4" fill="url(#paint6_linear)"/>
<rect y="252" width="12" height="12" rx="4" fill="url(#paint7_linear)"/>
<rect x="144" width="12" height="12" rx="4" fill="url(#paint8_linear)"/>
<rect x="144" y="144" width="12" height="12" rx="4" fill="url(#paint9_linear)"/>
<rect x="144" y="72" width="12" height="12" rx="4" fill="url(#paint10_linear)"/>
<rect x="144" y="216" width="12" height="12" rx="4" fill="url(#paint11_linear)"/>
<rect x="144" y="36" width="12" height="12" rx="4" fill="url(#paint12_linear)"/>
<rect x="144" y="180" width="12" height="12" rx="4" fill="url(#paint13_linear)"/>
<rect x="144" y="108" width="12" height="12" rx="4" fill="url(#paint14_linear)"/>
<rect x="144" y="252" width="12" height="12" rx="4" fill="url(#paint15_linear)"/>
<rect x="72" width="12" height="12" rx="4" fill="url(#paint16_linear)"/>
<rect x="72" y="144" width="12" height="12" rx="4" fill="url(#paint17_linear)"/>
<rect x="72" y="72" width="12" height="12" rx="4" fill="url(#paint18_linear)"/>
<rect x="72" y="216" width="12" height="12" rx="4" fill="url(#paint19_linear)"/>
<rect x="72" y="36" width="12" height="12" rx="4" fill="url(#paint20_linear)"/>
<rect x="72" y="180" width="12" height="12" rx="4" fill="url(#paint21_linear)"/>
<rect x="72" y="108" width="12" height="12" rx="4" fill="url(#paint22_linear)"/>
<rect x="72" y="252" width="12" height="12" rx="4" fill="url(#paint23_linear)"/>
<rect x="216" width="12" height="12" rx="4" fill="url(#paint24_linear)"/>
<rect x="216" y="144" width="12" height="12" rx="4" fill="url(#paint25_linear)"/>
<rect x="216" y="72" width="12" height="12" rx="4" fill="url(#paint26_linear)"/>
<rect x="216" y="216" width="12" height="12" rx="4" fill="url(#paint27_linear)"/>
<rect x="216" y="36" width="12" height="12" rx="4" fill="url(#paint28_linear)"/>
<rect x="216" y="180" width="12" height="12" rx="4" fill="url(#paint29_linear)"/>
<rect x="216" y="108" width="12" height="12" rx="4" fill="url(#paint30_linear)"/>
<rect x="216" y="252" width="12" height="12" rx="4" fill="url(#paint31_linear)"/>
<rect x="36" width="12" height="12" rx="4" fill="url(#paint32_linear)"/>
<rect x="36" y="144" width="12" height="12" rx="4" fill="url(#paint33_linear)"/>
<rect x="36" y="72" width="12" height="12" rx="4" fill="url(#paint34_linear)"/>
<rect x="36" y="216" width="12" height="12" rx="4" fill="url(#paint35_linear)"/>
<rect x="36" y="36" width="12" height="12" rx="4" fill="url(#paint36_linear)"/>
<rect x="36" y="180" width="12" height="12" rx="4" fill="url(#paint37_linear)"/>
<rect x="36" y="108" width="12" height="12" rx="4" fill="url(#paint38_linear)"/>
<rect x="36" y="252" width="12" height="12" rx="4" fill="url(#paint39_linear)"/>
<rect x="180" width="12" height="12" rx="4" fill="url(#paint40_linear)"/>
<rect x="180" y="144" width="12" height="12" rx="4" fill="url(#paint41_linear)"/>
<rect x="180" y="72" width="12" height="12" rx="4" fill="url(#paint42_linear)"/>
<rect x="180" y="216" width="12" height="12" rx="4" fill="url(#paint43_linear)"/>
<rect x="180" y="36" width="12" height="12" rx="4" fill="url(#paint44_linear)"/>
<rect x="180" y="180" width="12" height="12" rx="4" fill="url(#paint45_linear)"/>
<rect x="180" y="108" width="12" height="12" rx="4" fill="url(#paint46_linear)"/>
<rect x="180" y="252" width="12" height="12" rx="4" fill="url(#paint47_linear)"/>
<rect x="108" width="12" height="12" rx="4" fill="url(#paint48_linear)"/>
<rect x="108" y="144" width="12" height="12" rx="4" fill="url(#paint49_linear)"/>
<rect x="108" y="72" width="12" height="12" rx="4" fill="url(#paint50_linear)"/>
<rect x="108" y="216" width="12" height="12" rx="4" fill="url(#paint51_linear)"/>
<rect x="108" y="36" width="12" height="12" rx="4" fill="url(#paint52_linear)"/>
<rect x="108" y="180" width="12" height="12" rx="4" fill="url(#paint53_linear)"/>
<rect x="108" y="108" width="12" height="12" rx="4" fill="url(#paint54_linear)"/>
<rect x="108" y="252" width="12" height="12" rx="4" fill="url(#paint55_linear)"/>
<rect x="252" width="12" height="12" rx="4" fill="url(#paint56_linear)"/>
<rect x="252" y="144" width="12" height="12" rx="4" fill="url(#paint57_linear)"/>
<rect x="252" y="72" width="12" height="12" rx="4" fill="url(#paint58_linear)"/>
<rect x="252" y="216" width="12" height="12" rx="4" fill="url(#paint59_linear)"/>
<rect x="252" y="36" width="12" height="12" rx="4" fill="url(#paint60_linear)"/>
<rect x="252" y="180" width="12" height="12" rx="4" fill="url(#paint61_linear)"/>
<rect x="252" y="108" width="12" height="12" rx="4" fill="url(#paint62_linear)"/>
<rect x="252" y="252" width="12" height="12" rx="4" fill="url(#paint63_linear)"/>
<defs>
<linearGradient id="paint0_linear" x1="0" y1="0" x2="12" y2="12" gradientUnits="userSpaceOnUse">
<stop stop-color="#EF8880" stop-opacity="0.04"/>
<stop offset="1" stop-color="#EF8880" stop-opacity="0.12"/>
</linearGradient>
<linearGradient id="paint1_linear" x1="0" y1="144" x2="12" y2="156" gradientUnits="userSpaceOnUse">
<stop stop-color="#EF8880" stop-opacity="0.04"/>
<stop offset="1" stop-color="#EF8880" stop-opacity="0.12"/>
</linearGradient>
<linearGradient id="paint2_linear" x1="0" y1="72" x2="12" y2="84" gradientUnits="userSpaceOnUse">
<stop stop-color="#EF8880" stop-opacity="0.04"/>
<stop offset="1" stop-color="#EF8880" stop-opacity="0.12"/>
</linearGradient>
<linearGradient id="paint3_linear" x1="0" y1="216" x2="12" y2="228" gradientUnits="userSpaceOnUse">
<stop stop-color="#EF8880" stop-opacity="0.04"/>
<stop offset="1" stop-color="#EF8880" stop-opacity="0.12"/>
</linearGradient>
<linearGradient id="paint4_linear" x1="0" y1="36" x2="12" y2="48" gradientUnits="userSpaceOnUse">
<stop stop-color="#EF8880" stop-opacity="0.04"/>
<stop offset="1" stop-color="#EF8880" stop-opacity="0.12"/>
</linearGradient>
<linearGradient id="paint5_linear" x1="0" y1="180" x2="12" y2="192" gradientUnits="userSpaceOnUse">
<stop stop-color="#EF8880" stop-opacity="0.04"/>
<stop offset="1" stop-color="#EF8880" stop-opacity="0.12"/>
</linearGradient>
<linearGradient id="paint6_linear" x1="0" y1="108" x2="12" y2="120" gradientUnits="userSpaceOnUse">
<stop stop-color="#EF8880" stop-opacity="0.04"/>
<stop offset="1" stop-color="#EF8880" stop-opacity="0.12"/>
</linearGradient>
<linearGradient id="paint7_linear" x1="0" y1="252" x2="12" y2="264" gradientUnits="userSpaceOnUse">
<stop stop-color="#EF8880" stop-opacity="0.04"/>
<stop offset="1" stop-color="#EF8880" stop-opacity="0.12"/>
</linearGradient>
<linearGradient id="paint8_linear" x1="144" y1="0" x2="156" y2="12" gradientUnits="userSpaceOnUse">
<stop stop-color="#EF8880" stop-opacity="0.04"/>
<stop offset="1" stop-color="#EF8880" stop-opacity="0.12"/>
</linearGradient>
<linearGradient id="paint9_linear" x1="144" y1="144" x2="156" y2="156" gradientUnits="userSpaceOnUse">
<stop stop-color="#EF8880" stop-opacity="0.04"/>
<stop offset="1" stop-color="#EF8880" stop-opacity="0.12"/>
</linearGradient>
<linearGradient id="paint10_linear" x1="144" y1="72" x2="156" y2="84" gradientUnits="userSpaceOnUse">
<stop stop-color="#EF8880" stop-opacity="0.04"/>
<stop offset="1" stop-color="#EF8880" stop-opacity="0.12"/>
</linearGradient>
<linearGradient id="paint11_linear" x1="144" y1="216" x2="156" y2="228" gradientUnits="userSpaceOnUse">
<stop stop-color="#EF8880" stop-opacity="0.04"/>
<stop offset="1" stop-color="#EF8880" stop-opacity="0.12"/>
</linearGradient>
<linearGradient id="paint12_linear" x1="144" y1="36" x2="156" y2="48" gradientUnits="userSpaceOnUse">
<stop stop-color="#EF8880" stop-opacity="0.04"/>
<stop offset="1" stop-color="#EF8880" stop-opacity="0.12"/>
</linearGradient>
<linearGradient id="paint13_linear" x1="144" y1="180" x2="156" y2="192" gradientUnits="userSpaceOnUse">
<stop stop-color="#EF8880" stop-opacity="0.04"/>
<stop offset="1" stop-color="#EF8880" stop-opacity="0.12"/>
</linearGradient>
<linearGradient id="paint14_linear" x1="144" y1="108" x2="156" y2="120" gradientUnits="userSpaceOnUse">
<stop stop-color="#EF8880" stop-opacity="0.04"/>
<stop offset="1" stop-color="#EF8880" stop-opacity="0.12"/>
</linearGradient>
<linearGradient id="paint15_linear" x1="144" y1="252" x2="156" y2="264" gradientUnits="userSpaceOnUse">
<stop stop-color="#EF8880" stop-opacity="0.04"/>
<stop offset="1" stop-color="#EF8880" stop-opacity="0.12"/>
</linearGradient>
<linearGradient id="paint16_linear" x1="72" y1="0" x2="84" y2="12" gradientUnits="userSpaceOnUse">
<stop stop-color="#EF8880" stop-opacity="0.04"/>
<stop offset="1" stop-color="#EF8880" stop-opacity="0.12"/>
</linearGradient>
<linearGradient id="paint17_linear" x1="72" y1="144" x2="84" y2="156" gradientUnits="userSpaceOnUse">
<stop stop-color="#EF8880" stop-opacity="0.04"/>
<stop offset="1" stop-color="#EF8880" stop-opacity="0.12"/>
</linearGradient>
<linearGradient id="paint18_linear" x1="72" y1="72" x2="84" y2="84" gradientUnits="userSpaceOnUse">
<stop stop-color="#EF8880" stop-opacity="0.04"/>
<stop offset="1" stop-color="#EF8880" stop-opacity="0.12"/>
</linearGradient>
<linearGradient id="paint19_linear" x1="72" y1="216" x2="84" y2="228" gradientUnits="userSpaceOnUse">
<stop stop-color="#EF8880" stop-opacity="0.04"/>
<stop offset="1" stop-color="#EF8880" stop-opacity="0.12"/>
</linearGradient>
<linearGradient id="paint20_linear" x1="72" y1="36" x2="84" y2="48" gradientUnits="userSpaceOnUse">
<stop stop-color="#EF8880" stop-opacity="0.04"/>
<stop offset="1" stop-color="#EF8880" stop-opacity="0.12"/>
</linearGradient>
<linearGradient id="paint21_linear" x1="72" y1="180" x2="84" y2="192" gradientUnits="userSpaceOnUse">
<stop stop-color="#EF8880" stop-opacity="0.04"/>
<stop offset="1" stop-color="#EF8880" stop-opacity="0.12"/>
</linearGradient>
<linearGradient id="paint22_linear" x1="72" y1="108" x2="84" y2="120" gradientUnits="userSpaceOnUse">
<stop stop-color="#EF8880" stop-opacity="0.04"/>
<stop offset="1" stop-color="#EF8880" stop-opacity="0.12"/>
</linearGradient>
<linearGradient id="paint23_linear" x1="72" y1="252" x2="84" y2="264" gradientUnits="userSpaceOnUse">
<stop stop-color="#EF8880" stop-opacity="0.04"/>
<stop offset="1" stop-color="#EF8880" stop-opacity="0.12"/>
</linearGradient>
<linearGradient id="paint24_linear" x1="216" y1="0" x2="228" y2="12" gradientUnits="userSpaceOnUse">
<stop stop-color="#EF8880" stop-opacity="0.04"/>
<stop offset="1" stop-color="#EF8880" stop-opacity="0.12"/>
</linearGradient>
<linearGradient id="paint25_linear" x1="216" y1="144" x2="228" y2="156" gradientUnits="userSpaceOnUse">
<stop stop-color="#EF8880" stop-opacity="0.04"/>
<stop offset="1" stop-color="#EF8880" stop-opacity="0.12"/>
</linearGradient>
<linearGradient id="paint26_linear" x1="216" y1="72" x2="228" y2="84" gradientUnits="userSpaceOnUse">
<stop stop-color="#EF8880" stop-opacity="0.04"/>
<stop offset="1" stop-color="#EF8880" stop-opacity="0.12"/>
</linearGradient>
<linearGradient id="paint27_linear" x1="216" y1="216" x2="228" y2="228" gradientUnits="userSpaceOnUse">
<stop stop-color="#EF8880" stop-opacity="0.04"/>
<stop offset="1" stop-color="#EF8880" stop-opacity="0.12"/>
</linearGradient>
<linearGradient id="paint28_linear" x1="216" y1="36" x2="228" y2="48" gradientUnits="userSpaceOnUse">
<stop stop-color="#EF8880" stop-opacity="0.04"/>
<stop offset="1" stop-color="#EF8880" stop-opacity="0.12"/>
</linearGradient>
<linearGradient id="paint29_linear" x1="216" y1="180" x2="228" y2="192" gradientUnits="userSpaceOnUse">
<stop stop-color="#EF8880" stop-opacity="0.04"/>
<stop offset="1" stop-color="#EF8880" stop-opacity="0.12"/>
</linearGradient>
<linearGradient id="paint30_linear" x1="216" y1="108" x2="228" y2="120" gradientUnits="userSpaceOnUse">
<stop stop-color="#EF8880" stop-opacity="0.04"/>
<stop offset="1" stop-color="#EF8880" stop-opacity="0.12"/>
</linearGradient>
<linearGradient id="paint31_linear" x1="216" y1="252" x2="228" y2="264" gradientUnits="userSpaceOnUse">
<stop stop-color="#EF8880" stop-opacity="0.04"/>
<stop offset="1" stop-color="#EF8880" stop-opacity="0.12"/>
</linearGradient>
<linearGradient id="paint32_linear" x1="36" y1="0" x2="48" y2="12" gradientUnits="userSpaceOnUse">
<stop stop-color="#EF8880" stop-opacity="0.04"/>
<stop offset="1" stop-color="#EF8880" stop-opacity="0.12"/>
</linearGradient>
<linearGradient id="paint33_linear" x1="36" y1="144" x2="48" y2="156" gradientUnits="userSpaceOnUse">
<stop stop-color="#EF8880" stop-opacity="0.04"/>
<stop offset="1" stop-color="#EF8880" stop-opacity="0.12"/>
</linearGradient>
<linearGradient id="paint34_linear" x1="36" y1="72" x2="48" y2="84" gradientUnits="userSpaceOnUse">
<stop stop-color="#EF8880" stop-opacity="0.04"/>
<stop offset="1" stop-color="#EF8880" stop-opacity="0.12"/>
</linearGradient>
<linearGradient id="paint35_linear" x1="36" y1="216" x2="48" y2="228" gradientUnits="userSpaceOnUse">
<stop stop-color="#EF8880" stop-opacity="0.04"/>
<stop offset="1" stop-color="#EF8880" stop-opacity="0.12"/>
</linearGradient>
<linearGradient id="paint36_linear" x1="36" y1="36" x2="48" y2="48" gradientUnits="userSpaceOnUse">
<stop stop-color="#EF8880" stop-opacity="0.04"/>
<stop offset="1" stop-color="#EF8880" stop-opacity="0.12"/>
</linearGradient>
<linearGradient id="paint37_linear" x1="36" y1="180" x2="48" y2="192" gradientUnits="userSpaceOnUse">
<stop stop-color="#EF8880" stop-opacity="0.04"/>
<stop offset="1" stop-color="#EF8880" stop-opacity="0.12"/>
</linearGradient>
<linearGradient id="paint38_linear" x1="36" y1="108" x2="48" y2="120" gradientUnits="userSpaceOnUse">
<stop stop-color="#EF8880" stop-opacity="0.04"/>
<stop offset="1" stop-color="#EF8880" stop-opacity="0.12"/>
</linearGradient>
<linearGradient id="paint39_linear" x1="36" y1="252" x2="48" y2="264" gradientUnits="userSpaceOnUse">
<stop stop-color="#EF8880" stop-opacity="0.04"/>
<stop offset="1" stop-color="#EF8880" stop-opacity="0.12"/>
</linearGradient>
<linearGradient id="paint40_linear" x1="180" y1="0" x2="192" y2="12" gradientUnits="userSpaceOnUse">
<stop stop-color="#EF8880" stop-opacity="0.04"/>
<stop offset="1" stop-color="#EF8880" stop-opacity="0.12"/>
</linearGradient>
<linearGradient id="paint41_linear" x1="180" y1="144" x2="192" y2="156" gradientUnits="userSpaceOnUse">
<stop stop-color="#EF8880" stop-opacity="0.04"/>
<stop offset="1" stop-color="#EF8880" stop-opacity="0.12"/>
</linearGradient>
<linearGradient id="paint42_linear" x1="180" y1="72" x2="192" y2="84" gradientUnits="userSpaceOnUse">
<stop stop-color="#EF8880" stop-opacity="0.04"/>
<stop offset="1" stop-color="#EF8880" stop-opacity="0.12"/>
</linearGradient>
<linearGradient id="paint43_linear" x1="180" y1="216" x2="192" y2="228" gradientUnits="userSpaceOnUse">
<stop stop-color="#EF8880" stop-opacity="0.04"/>
<stop offset="1" stop-color="#EF8880" stop-opacity="0.12"/>
</linearGradient>
<linearGradient id="paint44_linear" x1="180" y1="36" x2="192" y2="48" gradientUnits="userSpaceOnUse">
<stop stop-color="#EF8880" stop-opacity="0.04"/>
<stop offset="1" stop-color="#EF8880" stop-opacity="0.12"/>
</linearGradient>
<linearGradient id="paint45_linear" x1="180" y1="180" x2="192" y2="192" gradientUnits="userSpaceOnUse">
<stop stop-color="#EF8880" stop-opacity="0.04"/>
<stop offset="1" stop-color="#EF8880" stop-opacity="0.12"/>
</linearGradient>
<linearGradient id="paint46_linear" x1="180" y1="108" x2="192" y2="120" gradientUnits="userSpaceOnUse">
<stop stop-color="#EF8880" stop-opacity="0.04"/>
<stop offset="1" stop-color="#EF8880" stop-opacity="0.12"/>
</linearGradient>
<linearGradient id="paint47_linear" x1="180" y1="252" x2="192" y2="264" gradientUnits="userSpaceOnUse">
<stop stop-color="#EF8880" stop-opacity="0.04"/>
<stop offset="1" stop-color="#EF8880" stop-opacity="0.12"/>
</linearGradient>
<linearGradient id="paint48_linear" x1="108" y1="0" x2="120" y2="12" gradientUnits="userSpaceOnUse">
<stop stop-color="#EF8880" stop-opacity="0.04"/>
<stop offset="1" stop-color="#EF8880" stop-opacity="0.12"/>
</linearGradient>
<linearGradient id="paint49_linear" x1="108" y1="144" x2="120" y2="156" gradientUnits="userSpaceOnUse">
<stop stop-color="#EF8880" stop-opacity="0.04"/>
<stop offset="1" stop-color="#EF8880" stop-opacity="0.12"/>
</linearGradient>
<linearGradient id="paint50_linear" x1="108" y1="72" x2="120" y2="84" gradientUnits="userSpaceOnUse">
<stop stop-color="#EF8880" stop-opacity="0.04"/>
<stop offset="1" stop-color="#EF8880" stop-opacity="0.12"/>
</linearGradient>
<linearGradient id="paint51_linear" x1="108" y1="216" x2="120" y2="228" gradientUnits="userSpaceOnUse">
<stop stop-color="#EF8880" stop-opacity="0.04"/>
<stop offset="1" stop-color="#EF8880" stop-opacity="0.12"/>
</linearGradient>
<linearGradient id="paint52_linear" x1="108" y1="36" x2="120" y2="48" gradientUnits="userSpaceOnUse">
<stop stop-color="#EF8880" stop-opacity="0.04"/>
<stop offset="1" stop-color="#EF8880" stop-opacity="0.12"/>
</linearGradient>
<linearGradient id="paint53_linear" x1="108" y1="180" x2="120" y2="192" gradientUnits="userSpaceOnUse">
<stop stop-color="#EF8880" stop-opacity="0.04"/>
<stop offset="1" stop-color="#EF8880" stop-opacity="0.12"/>
</linearGradient>
<linearGradient id="paint54_linear" x1="108" y1="108" x2="120" y2="120" gradientUnits="userSpaceOnUse">
<stop stop-color="#EF8880" stop-opacity="0.04"/>
<stop offset="1" stop-color="#EF8880" stop-opacity="0.12"/>
</linearGradient>
<linearGradient id="paint55_linear" x1="108" y1="252" x2="120" y2="264" gradientUnits="userSpaceOnUse">
<stop stop-color="#EF8880" stop-opacity="0.04"/>
<stop offset="1" stop-color="#EF8880" stop-opacity="0.12"/>
</linearGradient>
<linearGradient id="paint56_linear" x1="252" y1="0" x2="264" y2="12" gradientUnits="userSpaceOnUse">
<stop stop-color="#EF8880" stop-opacity="0.04"/>
<stop offset="1" stop-color="#EF8880" stop-opacity="0.12"/>
</linearGradient>
<linearGradient id="paint57_linear" x1="252" y1="144" x2="264" y2="156" gradientUnits="userSpaceOnUse">
<stop stop-color="#EF8880" stop-opacity="0.04"/>
<stop offset="1" stop-color="#EF8880" stop-opacity="0.12"/>
</linearGradient>
<linearGradient id="paint58_linear" x1="252" y1="72" x2="264" y2="84" gradientUnits="userSpaceOnUse">
<stop stop-color="#EF8880" stop-opacity="0.04"/>
<stop offset="1" stop-color="#EF8880" stop-opacity="0.12"/>
</linearGradient>
<linearGradient id="paint59_linear" x1="252" y1="216" x2="264" y2="228" gradientUnits="userSpaceOnUse">
<stop stop-color="#EF8880" stop-opacity="0.04"/>
<stop offset="1" stop-color="#EF8880" stop-opacity="0.12"/>
</linearGradient>
<linearGradient id="paint60_linear" x1="252" y1="36" x2="264" y2="48" gradientUnits="userSpaceOnUse">
<stop stop-color="#EF8880" stop-opacity="0.04"/>
<stop offset="1" stop-color="#EF8880" stop-opacity="0.12"/>
</linearGradient>
<linearGradient id="paint61_linear" x1="252" y1="180" x2="264" y2="192" gradientUnits="userSpaceOnUse">
<stop stop-color="#EF8880" stop-opacity="0.04"/>
<stop offset="1" stop-color="#EF8880" stop-opacity="0.12"/>
</linearGradient>
<linearGradient id="paint62_linear" x1="252" y1="108" x2="264" y2="120" gradientUnits="userSpaceOnUse">
<stop stop-color="#EF8880" stop-opacity="0.04"/>
<stop offset="1" stop-color="#EF8880" stop-opacity="0.12"/>
</linearGradient>
<linearGradient id="paint63_linear" x1="252" y1="252" x2="264" y2="264" gradientUnits="userSpaceOnUse">
<stop stop-color="#EF8880" stop-opacity="0.04"/>
<stop offset="1" stop-color="#EF8880" stop-opacity="0.12"/>
</linearGradient>
</defs>
</svg>
