<svg width="18" height="14" viewBox="0 0 18 14" fill="none" xmlns="http://www.w3.org/2000/svg">
<path d="M7.63606 2.50799L5.39206 5.93999C6.06673 6.17466 6.62406 6.59999 7.06406 7.21599C7.50406 7.80266 7.72406 8.52133 7.72406 9.37199C7.72406 10.428 7.35739 11.3373 6.62406 12.1C5.89073 12.8333 4.99606 13.2 3.94006 13.2C2.88406 13.2 1.97473 12.8333 1.21206 12.1C0.478727 11.3373 0.112061 10.428 0.112061 9.37199C0.112061 8.81466 0.200061 8.31599 0.376061 7.87599C0.581394 7.43599 0.860061 6.96666 1.21206 6.46799L5.04006 0.791992L7.63606 2.50799ZM17.2721 2.50799L15.0281 5.93999C15.7027 6.17466 16.2601 6.59999 16.7001 7.21599C17.1401 7.80266 17.3601 8.52133 17.3601 9.37199C17.3601 10.428 16.9934 11.3373 16.2601 12.1C15.5267 12.8333 14.6321 13.2 13.5761 13.2C12.5201 13.2 11.6107 12.8333 10.8481 12.1C10.1147 11.3373 9.74806 10.428 9.74806 9.37199C9.74806 8.81466 9.83606 8.31599 10.0121 7.87599C10.2174 7.43599 10.4961 6.96666 10.8481 6.46799L14.6761 0.791992L17.2721 2.50799Z" fill="#EF8880"/>
</svg>
