<svg width="132" height="144" viewBox="0 0 132 144" fill="none" xmlns="http://www.w3.org/2000/svg">
<g filter="url(#filter0_d)">
<path d="M5.6547 10L66 0L126.345 10C126.345 10 134.568 63.9146 126.345 90C115.515 124.356 66 140 66 140C66 140 16.4851 124.356 5.6547 90C-2.56837 63.9146 5.6547 10 5.6547 10Z" fill="white"/>
<path d="M8.47095 19.299C8.75162 16.9126 9.00728 14.9318 9.20491 13.4662L66 4.05455L122.795 13.4662C122.993 14.9318 123.248 16.9126 123.529 19.299C124.165 24.7085 124.928 32.1863 125.436 40.4631C126.466 57.2227 126.394 76.5402 122.53 88.7974C117.566 104.546 103.541 116.395 90.0595 124.45C83.3989 128.43 77.0521 131.376 72.3683 133.326C70.0299 134.3 68.115 135.022 66.7943 135.497C66.4991 135.603 66.2337 135.697 66 135.779C65.7663 135.697 65.5009 135.603 65.2057 135.497C63.885 135.022 61.9701 134.3 59.6317 133.326C54.9479 131.376 48.6011 128.43 41.9405 124.45C28.459 116.395 14.4341 104.546 9.46963 88.7974C5.60572 76.5402 5.5344 57.2227 6.56353 40.4631C7.07177 32.1863 7.8347 24.7085 8.47095 19.299Z" stroke="#EF8880" stroke-width="8"/>
</g>
<path d="M27.7815 48V39.52L25.8455 40.336L25.0775 38.56L28.2935 37.056H29.8775V48H27.7815ZM36.5148 48.256C35.8108 48.256 35.1761 48.112 34.6108 47.824C34.0454 47.5253 33.5601 47.12 33.1548 46.608C32.7601 46.096 32.4561 45.4933 32.2428 44.8C32.0294 44.096 31.9228 43.3387 31.9228 42.528C31.9228 41.7173 32.0294 40.9653 32.2428 40.272C32.4561 39.568 32.7601 38.96 33.1548 38.448C33.5601 37.936 34.0454 37.536 34.6108 37.248C35.1761 36.9493 35.8108 36.8 36.5148 36.8C37.2188 36.8 37.8534 36.9493 38.4188 37.248C38.9841 37.536 39.4641 37.936 39.8588 38.448C40.2641 38.96 40.5734 39.568 40.7868 40.272C41.0001 40.9653 41.1068 41.7173 41.1068 42.528C41.1068 43.3387 41.0001 44.096 40.7868 44.8C40.5734 45.4933 40.2641 46.096 39.8588 46.608C39.4641 47.12 38.9841 47.5253 38.4188 47.824C37.8534 48.112 37.2188 48.256 36.5148 48.256ZM36.5148 46.272C36.8988 46.272 37.2454 46.1813 37.5548 46C37.8641 45.808 38.1254 45.5467 38.3388 45.216C38.5628 44.8747 38.7281 44.4747 38.8348 44.016C38.9521 43.5573 39.0108 43.0613 39.0108 42.528C39.0108 41.984 38.9521 41.488 38.8348 41.04C38.7281 40.5813 38.5628 40.1867 38.3388 39.856C38.1254 39.5147 37.8641 39.2533 37.5548 39.072C37.2454 38.88 36.8988 38.784 36.5148 38.784C36.1201 38.784 35.7681 38.88 35.4588 39.072C35.1494 39.2533 34.8881 39.5147 34.6748 39.856C34.4614 40.1867 34.2961 40.5813 34.1788 41.04C34.0721 41.488 34.0188 41.984 34.0188 42.528C34.0188 43.0613 34.0721 43.5573 34.1788 44.016C34.2961 44.4747 34.4614 44.8747 34.6748 45.216C34.8881 45.5467 35.1494 45.808 35.4588 46C35.7681 46.1813 36.1201 46.272 36.5148 46.272ZM47.1085 48.256C46.4045 48.256 45.7698 48.112 45.2045 47.824C44.6392 47.5253 44.1538 47.12 43.7485 46.608C43.3538 46.096 43.0498 45.4933 42.8365 44.8C42.6232 44.096 42.5165 43.3387 42.5165 42.528C42.5165 41.7173 42.6232 40.9653 42.8365 40.272C43.0498 39.568 43.3538 38.96 43.7485 38.448C44.1538 37.936 44.6392 37.536 45.2045 37.248C45.7698 36.9493 46.4045 36.8 47.1085 36.8C47.8125 36.8 48.4472 36.9493 49.0125 37.248C49.5778 37.536 50.0578 37.936 50.4525 38.448C50.8578 38.96 51.1672 39.568 51.3805 40.272C51.5938 40.9653 51.7005 41.7173 51.7005 42.528C51.7005 43.3387 51.5938 44.096 51.3805 44.8C51.1672 45.4933 50.8578 46.096 50.4525 46.608C50.0578 47.12 49.5778 47.5253 49.0125 47.824C48.4472 48.112 47.8125 48.256 47.1085 48.256ZM47.1085 46.272C47.4925 46.272 47.8392 46.1813 48.1485 46C48.4578 45.808 48.7192 45.5467 48.9325 45.216C49.1565 44.8747 49.3218 44.4747 49.4285 44.016C49.5458 43.5573 49.6045 43.0613 49.6045 42.528C49.6045 41.984 49.5458 41.488 49.4285 41.04C49.3218 40.5813 49.1565 40.1867 48.9325 39.856C48.7192 39.5147 48.4578 39.2533 48.1485 39.072C47.8392 38.88 47.4925 38.784 47.1085 38.784C46.7138 38.784 46.3618 38.88 46.0525 39.072C45.7432 39.2533 45.4818 39.5147 45.2685 39.856C45.0552 40.1867 44.8898 40.5813 44.7725 41.04C44.6658 41.488 44.6125 41.984 44.6125 42.528C44.6125 43.0613 44.6658 43.5573 44.7725 44.016C44.8898 44.4747 45.0552 44.8747 45.2685 45.216C45.4818 45.5467 45.7432 45.808 46.0525 46C46.3618 46.1813 46.7138 46.272 47.1085 46.272ZM52.9183 39.536C52.9183 39.1627 52.9876 38.8107 53.1263 38.48C53.2756 38.1493 53.4729 37.8613 53.7183 37.616C53.9743 37.36 54.2729 37.1627 54.6143 37.024C54.9556 36.8747 55.3289 36.8 55.7343 36.8C56.1396 36.8 56.5129 36.8747 56.8543 37.024C57.2063 37.1627 57.5049 37.36 57.7503 37.616C58.0063 37.8613 58.2036 38.1493 58.3423 38.48C58.4916 38.8107 58.5663 39.1627 58.5663 39.536C58.5663 39.9093 58.4916 40.2667 58.3423 40.608C58.2036 40.9387 58.0063 41.2267 57.7503 41.472C57.5049 41.7173 57.2063 41.9147 56.8543 42.064C56.5129 42.2027 56.1396 42.272 55.7343 42.272C55.3289 42.272 54.9556 42.2027 54.6143 42.064C54.2729 41.9147 53.9743 41.7173 53.7183 41.472C53.4729 41.2267 53.2756 40.9387 53.1263 40.608C52.9876 40.2667 52.9183 39.9093 52.9183 39.536ZM54.6303 39.536C54.6303 39.888 54.7369 40.1707 54.9503 40.384C55.1636 40.5973 55.4249 40.704 55.7343 40.704C56.0436 40.704 56.3049 40.5973 56.5182 40.384C56.7316 40.1707 56.8383 39.888 56.8383 39.536C56.8383 39.184 56.7316 38.9013 56.5182 38.688C56.3049 38.4747 56.0436 38.368 55.7343 38.368C55.4249 38.368 55.1636 38.4747 54.9503 38.688C54.7369 38.9013 54.6303 39.184 54.6303 39.536ZM54.9503 47.408L62.0543 36.8L63.3183 37.648L56.2143 48.256L54.9503 47.408ZM59.7023 45.52C59.7023 45.1467 59.7716 44.7947 59.9103 44.464C60.0596 44.1333 60.2569 43.8453 60.5023 43.6C60.7583 43.344 61.0569 43.1467 61.3983 43.008C61.7396 42.8587 62.1129 42.784 62.5183 42.784C62.9236 42.784 63.2969 42.8587 63.6383 43.008C63.9903 43.1467 64.2889 43.344 64.5343 43.6C64.7903 43.8453 64.9876 44.1333 65.1263 44.464C65.2756 44.7947 65.3503 45.1467 65.3503 45.52C65.3503 45.8933 65.2756 46.2507 65.1263 46.592C64.9876 46.9227 64.7903 47.2107 64.5343 47.456C64.2889 47.7013 63.9903 47.8933 63.6383 48.032C63.2969 48.1813 62.9236 48.256 62.5183 48.256C62.1129 48.256 61.7396 48.1813 61.3983 48.032C61.0569 47.8933 60.7583 47.7013 60.5023 47.456C60.2569 47.2107 60.0596 46.9227 59.9103 46.592C59.7716 46.2507 59.7023 45.8933 59.7023 45.52ZM61.4143 45.52C61.4143 45.872 61.5209 46.1547 61.7343 46.368C61.9476 46.5813 62.2089 46.688 62.5183 46.688C62.8276 46.688 63.0889 46.5813 63.3023 46.368C63.5156 46.1547 63.6223 45.872 63.6223 45.52C63.6223 45.168 63.5156 44.8853 63.3023 44.672C63.0889 44.4587 62.8276 44.352 62.5183 44.352C62.2089 44.352 61.9476 44.4587 61.7343 44.672C61.5209 44.8853 61.4143 45.168 61.4143 45.52ZM73.5466 48.256C73.056 48.256 72.5866 48.1867 72.1386 48.048C71.6906 47.9093 71.28 47.7013 70.9066 47.424C70.5333 47.1467 70.208 46.8107 69.9306 46.416C69.6533 46.0107 69.4346 45.5413 69.2746 45.008L71.3066 44.208C71.456 44.784 71.7173 45.264 72.0906 45.648C72.464 46.0213 72.9546 46.208 73.5626 46.208C73.7866 46.208 74 46.1813 74.2026 46.128C74.416 46.064 74.6026 45.9787 74.7626 45.872C74.9333 45.7547 75.0666 45.6107 75.1626 45.44C75.2586 45.2693 75.3066 45.072 75.3066 44.848C75.3066 44.6347 75.2693 44.4427 75.1946 44.272C75.12 44.1013 74.992 43.9413 74.8106 43.792C74.64 43.6427 74.4106 43.4987 74.1226 43.36C73.8453 43.2213 73.4986 43.0773 73.0826 42.928L72.3786 42.672C72.0693 42.5653 71.7546 42.4213 71.4346 42.24C71.1253 42.0587 70.8426 41.84 70.5866 41.584C70.3306 41.328 70.1173 41.0293 69.9466 40.688C69.7866 40.336 69.7066 39.9413 69.7066 39.504C69.7066 39.056 69.792 38.64 69.9626 38.256C70.144 37.8613 70.3946 37.52 70.7146 37.232C71.0453 36.9333 71.4346 36.704 71.8826 36.544C72.3413 36.3733 72.848 36.288 73.4026 36.288C73.9786 36.288 74.4746 36.368 74.8906 36.528C75.3173 36.6773 75.6746 36.8747 75.9626 37.12C76.2613 37.3547 76.5013 37.616 76.6826 37.904C76.864 38.192 76.9973 38.464 77.0826 38.72L75.1786 39.52C75.072 39.2 74.8746 38.912 74.5866 38.656C74.3093 38.4 73.9253 38.272 73.4346 38.272C72.9653 38.272 72.576 38.384 72.2666 38.608C71.9573 38.8213 71.8026 39.104 71.8026 39.456C71.8026 39.7973 71.952 40.0907 72.2506 40.336C72.5493 40.5707 73.024 40.8 73.6746 41.024L74.3946 41.264C74.8533 41.424 75.2693 41.6107 75.6426 41.824C76.0266 42.0267 76.352 42.272 76.6186 42.56C76.896 42.848 77.104 43.1787 77.2426 43.552C77.392 43.9147 77.4666 44.336 77.4666 44.816C77.4666 45.4133 77.344 45.9307 77.0986 46.368C76.864 46.7947 76.56 47.1467 76.1866 47.424C75.8133 47.7013 75.392 47.9093 74.9226 48.048C74.4533 48.1867 73.9946 48.256 73.5466 48.256ZM82.4335 36.544H84.8975L89.2015 48H86.8175L85.8735 45.264H81.4575L80.5135 48H78.1295L82.4335 36.544ZM85.1695 43.28L84.1455 40.416L83.7295 39.024H83.6015L83.1855 40.416L82.1615 43.28H85.1695ZM90.5426 36.544H97.8066V38.592H92.7026V41.376H97.2946V43.424H92.7026V48H90.5426V36.544ZM101.625 38.592V41.248H106.217V43.296H101.625V45.952H106.729V48H99.4645V36.544H106.729V38.592H101.625Z" fill="#020202"/>
<path d="M45.5832 86.8035C44.8056 86.0293 44.8056 84.7742 45.5832 84L48.3993 81.1965C49.177 80.4223 50.4378 80.4223 51.2154 81.1965L63.8879 93.8123C64.6656 94.5865 64.6656 95.8417 63.8879 96.6158L61.0718 99.4194C60.2942 100.194 59.0334 100.194 58.2557 99.4194L45.5832 86.8035Z" fill="#EF8880"/>
<path d="M80.7846 68.5806C81.5622 67.8065 82.823 67.8065 83.6007 68.5806L86.4168 71.3842C87.1944 72.1583 87.1944 73.4135 86.4168 74.1877L61.0718 99.4194C60.2942 100.194 59.0334 100.194 58.2557 99.4194L55.4396 96.6158C54.662 95.8417 54.662 94.5865 55.4396 93.8123L80.7846 68.5806Z" fill="#EF8880"/>
<defs>
<filter id="filter0_d" x="0" y="0" width="132" height="144" filterUnits="userSpaceOnUse" color-interpolation-filters="sRGB">
<feFlood flood-opacity="0" result="BackgroundImageFix"/>
<feColorMatrix in="SourceAlpha" type="matrix" values="0 0 0 0 0 0 0 0 0 0 0 0 0 0 0 0 0 0 127 0"/>
<feOffset dy="2"/>
<feGaussianBlur stdDeviation="1"/>
<feColorMatrix type="matrix" values="0 0 0 0 0 0 0 0 0 0 0 0 0 0 0 0 0 0 0.08 0"/>
<feBlend mode="normal" in2="BackgroundImageFix" result="effect1_dropShadow"/>
<feBlend mode="normal" in="SourceGraphic" in2="effect1_dropShadow" result="shape"/>
</filter>
</defs>
</svg>
