<svg width="19" height="15" viewBox="0 0 19 15" fill="none" xmlns="http://www.w3.org/2000/svg">
<g clip-path="url(#clip0)">
<path d="M12.8059 0.336263V0.333008H13.6811L14.0009 0.394865C14.2142 0.435023 14.4077 0.487651 14.5816 0.552764C14.7556 0.617876 14.9239 0.693847 15.0866 0.780659C15.2493 0.86747 15.3969 0.955926 15.5293 1.04599C15.6606 1.13499 15.7784 1.2294 15.8828 1.32923C15.986 1.43016 16.147 1.4562 16.3658 1.40737C16.5847 1.35853 16.8203 1.2907 17.0728 1.20389C17.3253 1.11708 17.5749 1.01941 17.8218 0.910884C18.0687 0.802357 18.2191 0.733452 18.2729 0.704151C18.3257 0.673776 18.3537 0.657498 18.3571 0.655316L18.3604 0.650433L18.3773 0.642294L18.3941 0.634155L18.4109 0.626016L18.4278 0.617876L18.4311 0.612993L18.4362 0.609737L18.4412 0.606482L18.4446 0.601598L18.4614 0.596715L18.4783 0.593459L18.4749 0.617876L18.4698 0.642294L18.4614 0.666711L18.453 0.691128L18.4446 0.707407L18.4362 0.723685L18.4278 0.748102C18.4221 0.76438 18.4165 0.786079 18.4109 0.813215C18.4053 0.840351 18.352 0.948861 18.251 1.13878C18.15 1.3287 18.0238 1.52132 17.8723 1.71666C17.7208 1.91199 17.585 2.05957 17.465 2.15942C17.3438 2.26035 17.2636 2.33088 17.2243 2.37104C17.185 2.41227 17.1373 2.45025 17.0812 2.48499L16.997 2.53871L16.9802 2.54684L16.9634 2.55498L16.96 2.55987L16.955 2.56312L16.9499 2.56638L16.9465 2.57126L16.9297 2.5794L16.9129 2.58754L16.9095 2.59242L16.9045 2.59568L16.8994 2.59893L16.896 2.60382L16.8927 2.6087L16.8876 2.61196L16.8826 2.61521L16.8792 2.6201H16.9634L17.4347 2.52243C17.7489 2.45731 18.049 2.37864 18.3352 2.28639L18.7896 2.13989L18.8401 2.12361L18.8654 2.11547L18.8822 2.10733L18.899 2.09919L18.9159 2.09105L18.9327 2.08292L18.9664 2.07803L19 2.07478V2.10733L18.9916 2.11059L18.9832 2.11547L18.9799 2.12036L18.9748 2.12361L18.9697 2.12687L18.9664 2.13175L18.963 2.13663L18.958 2.13989L18.9529 2.14314L18.9495 2.14803L18.9462 2.15291L18.9411 2.15617L18.9327 2.17245L18.9243 2.18872L18.9192 2.19198C18.917 2.19523 18.8458 2.28747 18.7055 2.46871C18.5652 2.65102 18.4895 2.74326 18.4783 2.74544C18.467 2.74869 18.4513 2.76497 18.4311 2.79427C18.412 2.82465 18.2931 2.94566 18.0743 3.15728C17.8555 3.36889 17.6412 3.55717 17.4313 3.72213C17.2204 3.88817 17.1137 4.09218 17.1115 4.33419C17.1081 4.57511 17.0952 4.84751 17.0728 5.15136C17.0503 5.45522 17.0083 5.78349 16.9465 6.13619C16.8848 6.48889 16.7894 6.88771 16.6604 7.33264C16.5314 7.77757 16.3743 8.21166 16.1891 8.63489C16.0039 9.05813 15.8104 9.43795 15.6084 9.77437C15.4064 10.1108 15.2213 10.3957 15.0529 10.629C14.8846 10.8623 14.7135 11.082 14.5396 11.2882C14.3656 11.4944 14.1457 11.7267 13.8798 11.985C13.6127 12.2421 13.4668 12.3832 13.4421 12.4082C13.4163 12.4321 13.3064 12.5211 13.1122 12.6751C12.9192 12.8303 12.7116 12.9855 12.4894 13.1407C12.2684 13.2948 12.0653 13.4234 11.8801 13.5265C11.695 13.6296 11.4717 13.7473 11.2102 13.8797C10.9499 14.0132 10.6682 14.1369 10.3652 14.2509C10.0623 14.3648 9.74245 14.4706 9.40581 14.5683C9.06917 14.666 8.74376 14.7419 8.42956 14.7962C8.11537 14.8505 7.75909 14.8966 7.36073 14.9346L6.76319 14.9915V14.9997H5.66911V14.9915L5.52604 14.9834C5.43067 14.978 5.35212 14.9725 5.29039 14.9671C5.22869 14.9617 4.99583 14.9318 4.59187 14.8776C4.1879 14.8233 3.8709 14.7691 3.64086 14.7148C3.41083 14.6606 3.06857 14.5574 2.61411 14.4055C2.15964 14.2536 1.77083 14.1 1.44765 13.9448C1.1256 13.7907 0.923621 13.6931 0.8417 13.6518C0.760906 13.6117 0.670014 13.5618 0.569022 13.5021L0.417534 13.4125L0.414184 13.4077L0.409118 13.4044L0.404068 13.4012L0.400702 13.3963L0.38387 13.3881L0.367038 13.38L0.363688 13.3751L0.358622 13.3719L0.353572 13.3686L0.350206 13.3637L0.346856 13.3588L0.34179 13.3556H0.333374V13.323L0.350206 13.3263L0.367038 13.3312L0.442782 13.3393C0.493278 13.3447 0.630745 13.3529 0.855165 13.3637C1.0796 13.3746 1.31804 13.3746 1.57052 13.3637C1.823 13.3529 2.08111 13.3284 2.3448 13.2905C2.6085 13.2525 2.91989 13.1874 3.27897 13.0951C3.63806 13.0029 3.96797 12.8933 4.26871 12.7663C4.56832 12.6383 4.78151 12.5428 4.90832 12.4798C5.03399 12.418 5.22588 12.3029 5.48396 12.1347L5.8711 11.8824L5.87446 11.8775L5.87951 11.8743L5.88458 11.871L5.88793 11.8661L5.89129 11.8612L5.89634 11.858L5.90141 11.8547L5.90476 11.8498L5.92159 11.845L5.93842 11.8417L5.94179 11.8254L5.94684 11.8091L5.95191 11.8059L5.95526 11.801L5.8206 11.7929C5.73083 11.7874 5.64386 11.782 5.5597 11.7766C5.47554 11.7712 5.3437 11.7468 5.16415 11.7033C4.98462 11.6599 4.79105 11.5948 4.58345 11.508C4.37586 11.4212 4.17388 11.3181 3.9775 11.1987C3.78114 11.0793 3.63917 10.98 3.55165 10.9008C3.46525 10.8227 3.35303 10.712 3.21501 10.5687C3.07811 10.4244 2.95916 10.2763 2.85817 10.1244C2.75718 9.97243 2.66068 9.79714 2.56868 9.59857L2.42896 9.3023L2.42054 9.27788L2.41212 9.25347L2.40707 9.23719L2.40371 9.22091L2.42896 9.22417L2.4542 9.22905L2.63936 9.25347C2.7628 9.26974 2.95637 9.27517 3.22006 9.26974C3.48377 9.26432 3.66611 9.25347 3.7671 9.23719C3.86809 9.22091 3.92981 9.21005 3.95225 9.20463L3.98591 9.19649L4.02799 9.18835L4.07007 9.18021L4.07344 9.17533L4.07849 9.17208L4.08356 9.16882L4.08691 9.16394L4.05324 9.1558L4.01958 9.14766L3.98591 9.13952L3.95225 9.13138L3.91859 9.12324C3.89615 9.11782 3.85688 9.10696 3.80076 9.09068C3.74466 9.07441 3.59317 9.01471 3.3463 8.91162C3.09944 8.80853 2.90306 8.70815 2.75718 8.61048C2.61093 8.51252 2.47149 8.4054 2.33975 8.2898C2.20846 8.17259 2.06427 8.02174 1.90716 7.83726C1.75007 7.65278 1.60981 7.43845 1.48636 7.19427C1.36294 6.9501 1.27036 6.71678 1.20864 6.49431C1.14716 6.27314 1.1066 6.04703 1.08746 5.81876L1.05715 5.47692L1.07398 5.48018L1.09081 5.48506L1.10765 5.4932L1.12448 5.50134L1.14131 5.50948L1.15814 5.51762L1.41904 5.63157C1.59298 5.70754 1.80898 5.77265 2.06707 5.8269C2.32517 5.88116 2.47945 5.91101 2.52995 5.91643L2.60569 5.92457H2.75718L2.75383 5.91969L2.74876 5.91643L2.74371 5.91318L2.74035 5.90829L2.737 5.90341L2.73193 5.90016L2.72688 5.8969L2.72352 5.89202L2.70668 5.88388L2.68985 5.87574L2.6865 5.87085L2.68144 5.8676L2.67639 5.86434L2.67302 5.85946L2.65619 5.85132L2.63936 5.84318L2.63601 5.8383C2.63264 5.83612 2.58438 5.8014 2.49123 5.73412C2.39921 5.66575 2.30272 5.57731 2.20172 5.46878C2.10073 5.36026 1.99974 5.24631 1.89875 5.12694C1.79757 5.0073 1.70745 4.87929 1.62944 4.7444C1.5509 4.60876 1.46785 4.43619 1.38032 4.22676C1.29392 4.01839 1.22828 3.80841 1.18339 3.59679C1.13851 3.38517 1.11327 3.17627 1.10765 2.97008C1.10204 2.76388 1.10765 2.58754 1.12448 2.44104C1.14131 2.29453 1.17497 2.12903 1.22547 1.94455C1.27596 1.76007 1.34891 1.56473 1.44428 1.35853L1.58736 1.04925L1.59577 1.02483L1.60419 1.00041L1.60926 0.997159L1.6126 0.992275L1.61597 0.987392L1.62102 0.984136L1.62609 0.987392L1.62944 0.992275L1.6328 0.997159L1.63785 1.00041L1.64292 1.00367L1.64627 1.00855L1.64963 1.01344L1.65468 1.01669L1.6631 1.03297L1.67152 1.04925L1.67658 1.0525L1.67993 1.05739L1.90716 1.30156C2.05865 1.46434 2.2382 1.64612 2.44579 1.84688C2.65339 2.04764 2.76841 2.15182 2.79084 2.15942C2.8133 2.1681 2.84134 2.19305 2.875 2.2343C2.90867 2.27446 3.02089 2.3705 3.21164 2.52243C3.40242 2.67435 3.65209 2.85071 3.96067 3.05147C4.26926 3.25223 4.61151 3.45028 4.98742 3.64562C5.36334 3.84096 5.76731 4.0173 6.19932 4.17467C6.63135 4.33203 6.93432 4.43512 7.10825 4.48395C7.28219 4.53279 7.57954 4.59518 8.00034 4.67115C8.42114 4.74712 8.73815 4.79596 8.95135 4.81765C9.16456 4.83935 9.31044 4.85184 9.38898 4.85509L9.5068 4.85835L9.50345 4.83393L9.49839 4.80952L9.46472 4.60604C9.44229 4.47039 9.43106 4.28047 9.43106 4.0363C9.43106 3.79213 9.4507 3.56695 9.48997 3.36075C9.52926 3.15456 9.58817 2.94566 9.66671 2.73404C9.74526 2.52243 9.82213 2.35258 9.89731 2.22454C9.97362 2.09757 10.0735 1.95269 10.1969 1.78991C10.3204 1.62713 10.4803 1.45892 10.6766 1.28528C10.873 1.11164 11.0974 0.957 11.3499 0.821354C11.6024 0.685708 11.8352 0.582602 12.0484 0.512068C12.2616 0.441535 12.4412 0.395402 12.5871 0.373703C12.7329 0.352004 12.8059 0.339519 12.8059 0.336263Z" fill="white"/>
</g>
<defs>
<clipPath id="clip0">
<rect width="18.6667" height="14.6667" fill="white" transform="translate(0.333374 0.333008)"/>
</clipPath>
</defs>
</svg>
